<svg xmlns="http://www.w3.org/2000/svg" width="149.79" height="261.21" viewBox="0 0 149.79 261.21">
  <g id="Layer_2" data-name="Layer 2">
    <g id="Layer_1-2" data-name="Layer 1">
      <g>
        <g>
          <g>
            <g id="_Group_Wordmark_PMS_Cool_Grey_10_C_646569" data-name="&lt;Group&gt; Wordmark / PMS Cool Grey 10 C / #646569">
              <path d="M29.12,214.26V209.2h-6.2a3.18,3.18,0,0,1-3.33-3,5.29,5.29,0,0,1,0-.64V178.81c0-2.5-1.46-4.1-3.71-4.19H14v31.46c0,.36.05.68.06.77.51,4.47,3.71,7.28,8.53,7.41Z" style="fill: #fff"/>
              <path d="M59,209.2H53.93a3.19,3.19,0,0,1-3.33-3s0-.22,0-.64V178.81c0-2.5-1.46-4.1-3.7-4.19H45v31.46c0,.36.05.68.06.77.51,4.47,3.71,7.28,8.53,7.41H59Z" style="fill: #fff"/>
              <path d="M78,186.64H65.21v1.41c0,2,1.57,3.26,4.06,3.26h8.3a1.89,1.89,0,0,1,1.88,2.13v3.24H72c-5.36,0-8.92,3.43-8.92,8.69v.18c0,5.26,3.56,8.68,9,8.68H84.62V192.72a5.12,5.12,0,0,0-1.5-4.18A6.29,6.29,0,0,0,78,186.64Zm1.44,20.8a1.89,1.89,0,0,1-1.88,2.12H71.7c-2.12,0-3.49-1.41-3.49-3.72V205c0-2.25,1.31-3.67,3.43-3.67h5.93a1.9,1.9,0,0,1,1.88,2.13Z" style="fill: #fff"/>
              <path d="M107.42,187.64a9.07,9.07,0,0,0-4.62-1H95.31v-8.1c0-2.42-1.37-4-3.56-4H90.13v39.65H102.8a8.45,8.45,0,0,0,9-9V195A8.54,8.54,0,0,0,107.42,187.64Zm-.82,18.44a3.32,3.32,0,0,1-3.49,3.48h-7.8V193.44a1.89,1.89,0,0,1,1.87-2.13h5.93c2.19,0,3.49,1.41,3.49,3.78Z" style="fill: #fff"/>
              <path d="M128.26,214.65a8.31,8.31,0,0,0,8.49-8.51v-.35c0-2.84-1.62-5-4.62-6.21l-8.8-3.43a2.06,2.06,0,0,1-1.56-1.94v-.54c0-1.48,1.56-2.78,3.37-2.78h2.38c2,0,3.17,1.24,3.3,3.49l.06.59h5.18c-.25-5.43-3.56-8.74-8.61-8.74H125c-4.69,0-8.43,3.42-8.43,7.74v.35a5.93,5.93,0,0,0,3.87,5.56l9.24,3.42a2.68,2.68,0,0,1,1.87,2.49v.46c0,2.31-1.32,3.73-3.38,3.73h-3.36c-2.5,0-3.56-1.37-3.56-4.61h-5.18c0,5.73,3.31,9.28,8.68,9.28Z" style="fill: #fff"/>
            </g>
            <g>
              <path d="M147.63,189.37a1.4,1.4,0,0,0-1.51-1.31h-2v4.33h.78v-1.51h.71l1.26,1.48,0,0h.81v-.24l-1.17-1.35A1.35,1.35,0,0,0,147.63,189.37Zm-2.69.78v-1.34h1.18a.67.67,0,0,1,.52,1.12.72.72,0,0,1-.54.22Z" style="fill: #fff"/>
              <path d="M145.73,186.16a4.1,4.1,0,1,0,4.06,4.1A3.9,3.9,0,0,0,145.73,186.16Zm0,7.42a3.32,3.32,0,1,1,3.2-3.32A3.1,3.1,0,0,1,145.73,193.58Z" style="fill: #fff"/>
            </g>
            <g id="_Group_PMS_Orange_021_C_fe5000" data-name="&lt;Group&gt; PMS Orange 021 C / #fe5000">
              <path id="_Path_Z" data-name="&lt;Path&gt; Z" d="M25,186.72v2.88H39.15v-.89c0-1.28-1-2.06-2.63-2.06H29.27L38.33,175v-2.88H25.57v3h7.2c.61,0,.87.11.87.48a.9.9,0,0,1-.26.57Z" style="fill: #f05323"/>
            </g>
          </g>
          <g>
            <g>
              <path d="M14,255.22l3.31-.5a4.6,4.6,0,0,0,4.73,3.52c2,0,3.92-1,3.92-2.71,0-1.07-.69-1.76-2.11-2.2L19,251.91c-1.69-.5-4.23-1.53-4.23-4.86,0-3.66,3.07-5.55,6.93-5.52s6.6,2,7.47,5.54l-3.42.58a4,4,0,0,0-4.1-3.15c-1.89-.06-3.55.92-3.55,2.39s1.47,1.94,2.74,2.28l3.38.92c1.84.53,5.08,1.45,5.08,5.21,0,3.94-3.55,5.91-7.41,5.91C17.73,261.21,14.63,258.92,14,255.22Z" style="fill: #fff"/>
              <path d="M37.36,258.24a3.41,3.41,0,0,0,3.31-2l3.13.94a6.62,6.62,0,0,1-6.28,4,7,7,0,0,1-7.23-7.33c0-4.65,2.89-7.65,7.07-7.65,4.39,0,7,3.26,6.6,8.38H33.71C34,257,35.21,258.24,37.36,258.24Zm-3.57-6h7C40.46,250,39.44,249,37.49,249A3.43,3.43,0,0,0,33.79,252.2Z" style="fill: #fff"/>
              <path d="M50.13,254.85a5.45,5.45,0,0,0,.29,2.55c.63,1,2.1,1,3.89.76v2.65c-2.81.56-5.67.29-6.78-1.73-.66-1.23-.55-2.44-.55-4.07V249.1H44.4v-2.47H47v-3.95h3.15v3.95h4.18v2.47H50.13Z" style="fill: #fff"/>
            </g>
            <g>
              <path d="M61.67,241.9h3.15v18.91H61.67Z" style="fill: #fff"/>
              <path d="M73.05,244.86H66.92v-3H82.35v3H76.23v15.95H73.05Z" style="fill: #fff"/>
            </g>
            <g>
              <path d="M89.11,241.9h11.38v3.15H92.27v4.73h6.64v3.15H92.27v7.88H89.11Z" style="fill: #f05323"/>
              <path d="M108.87,246.63v2.94a4.14,4.14,0,0,0-2.94.34,3.93,3.93,0,0,0-1.87,3.71v7.19h-3.18V246.63h2.82v2.26a4.14,4.14,0,0,1,1.41-1.53A5.29,5.29,0,0,1,108.87,246.63Z" style="fill: #f05323"/>
              <path d="M115.94,258.24a3.41,3.41,0,0,0,3.31-2l3.13.94a6.62,6.62,0,0,1-6.28,4,7,7,0,0,1-7.23-7.33c0-4.65,2.89-7.65,7.07-7.65,4.39,0,7,3.26,6.6,8.38H112.29C112.52,257,113.78,258.24,115.94,258.24Zm-3.57-6h7C119,250,118,249,116.07,249A3.42,3.42,0,0,0,112.37,252.2Z" style="fill: #f05323"/>
              <path d="M130.71,258.24a3.42,3.42,0,0,0,3.31-2l3.12.94a6.61,6.61,0,0,1-6.28,4,7,7,0,0,1-7.22-7.33c0-4.65,2.89-7.65,7.07-7.65,4.38,0,7,3.26,6.59,8.38H127.05C127.29,257,128.55,258.24,130.71,258.24Zm-3.58-6h7c-.29-2.21-1.32-3.21-3.26-3.21A3.44,3.44,0,0,0,127.13,252.2Z" style="fill: #f05323"/>
            </g>
          </g>
        </g>
        <path d="M92.1,131.08H55.23l53.26-66.41h36.87ZM3.86,64.58h36l17.8,24.57v33.53L51.81,130Zm53.81-20V83.43L42.84,63ZM50.46,3.36h7.21V39.2l-17.75,22H4ZM61,3.36H90.63V81.57L61,118.49Zm86.73,58.8a3.56,3.56,0,0,0-2.35-.84H107.84a2,2,0,0,0-1.64.83L94,77.39V2.14A2.13,2.13,0,0,0,93.16.47,2.38,2.38,0,0,0,91.63,0H50.4A3.2,3.2,0,0,0,49,.29a4.17,4.17,0,0,0-1.51,1.35l-45.69,57A7.48,7.48,0,0,0,.09,61.92,7,7,0,0,0,0,63,6.43,6.43,0,0,0,1.1,66.4c.2.32.23.37.49.76l48.79,66.53a1.83,1.83,0,0,0,1.4.74H92.9a1.7,1.7,0,0,0,1.31-.62L148,66.74a3.41,3.41,0,0,0,.82-2.17,3.09,3.09,0,0,0-1.07-2.41" style="fill: #fff"/>
      </g>
    </g>
  </g>
</svg>
