<svg xmlns="http://www.w3.org/2000/svg" width="348.45" height="42.52" viewBox="0 0 348.45 42.52">
  <g id="Layer_2" data-name="Layer 2">
    <g id="Layer_1-2" data-name="Layer 1">
      <g>
        <g>
          <g id="_Group_Wordmark_PMS_Cool_Grey_10_C_646569" data-name="&lt;Group&gt; Wordmark / PMS Cool Grey 10 C / #646569">
            <path d="M15.09,42.13V37.07H8.89a3.18,3.18,0,0,1-3.33-3s0-.22,0-.64V6.68c0-2.5-1.46-4.1-3.71-4.19H0V34c0,.36.05.68.06.77C.57,39.19,3.77,42,8.6,42.13Z" style="fill: #fff"/>
            <path d="M45,37.07H39.9a3.2,3.2,0,0,1-3.33-3s0-.22,0-.64V6.68c0-2.5-1.46-4.1-3.7-4.19H31V34c0,.36,0,.68.06.77.51,4.47,3.71,7.27,8.53,7.41H45Z" style="fill: #fff"/>
            <path d="M64,14.51H51.18v1.41c0,2,1.57,3.26,4.06,3.26h8.3a1.88,1.88,0,0,1,1.88,2.12v3.25h-7.5C52.56,24.55,49,28,49,33.24v.18c0,5.26,3.56,8.68,9,8.68H70.59V20.59a5.15,5.15,0,0,0-1.5-4.19A6.32,6.32,0,0,0,64,14.51Zm1.44,20.8a1.89,1.89,0,0,1-1.88,2.12H57.68c-2.13,0-3.5-1.41-3.5-3.72v-.82c0-2.25,1.31-3.67,3.43-3.67h5.93a1.89,1.89,0,0,1,1.88,2.13Z" style="fill: #fff"/>
            <path d="M93.39,15.51a9.07,9.07,0,0,0-4.62-1H81.28V6.41c0-2.42-1.37-4-3.56-4H76.1V42.1H88.77a8.45,8.45,0,0,0,9-9V22.9A8.54,8.54,0,0,0,93.39,15.51ZM92.57,34a3.32,3.32,0,0,1-3.49,3.48h-7.8V21.3a1.88,1.88,0,0,1,1.87-2.12h5.93c2.19,0,3.49,1.41,3.49,3.78Z" style="fill: #fff"/>
            <path d="M114.23,42.52A8.31,8.31,0,0,0,122.72,34v-.35c0-2.84-1.62-5-4.62-6.21L109.3,24a2.06,2.06,0,0,1-1.56-1.94v-.55c0-1.47,1.56-2.77,3.37-2.77h2.38c2,0,3.17,1.24,3.3,3.49l.06.59H122c-.25-5.43-3.56-8.75-8.61-8.75H111c-4.69,0-8.43,3.43-8.43,7.75v.35a5.91,5.91,0,0,0,3.87,5.55l9.24,3.43a2.66,2.66,0,0,1,1.87,2.49v.46c0,2.31-1.32,3.73-3.37,3.73H110.8c-2.5,0-3.56-1.37-3.56-4.61h-5.18c0,5.73,3.31,9.28,8.68,9.28Z" style="fill: #fff"/>
          </g>
          <g>
            <path d="M133.6,17.23a1.41,1.41,0,0,0-1.51-1.31h-2v4.34h.78V18.75h.71l1.26,1.48,0,0h.81V20l-1.17-1.35A1.35,1.35,0,0,0,133.6,17.23Zm-2.69.79V16.68h1.18a.67.67,0,0,1,.52,1.12.72.72,0,0,1-.54.22Z" style="fill: #fff"/>
            <path d="M131.7,14a3.9,3.9,0,0,0-4,4.1,4.06,4.06,0,1,0,8.11,0A3.91,3.91,0,0,0,131.7,14Zm0,7.41a3.09,3.09,0,0,1-3.19-3.31,3.2,3.2,0,1,1,6.39,0A3.08,3.08,0,0,1,131.7,21.44Z" style="fill: #fff"/>
          </g>
          <g id="_Group_PMS_Orange_021_C_fe5000" data-name="&lt;Group&gt; PMS Orange 021 C / #fe5000">
            <path id="_Path_Z" data-name="&lt;Path&gt; Z" d="M11,14.59v2.88H25.12v-.9c0-1.27-1-2.05-2.63-2.05H15.24L24.3,2.88V0H11.54V3h7.2c.61,0,.87.11.87.48a.9.9,0,0,1-.26.57Z" style="fill: #f05323"/>
          </g>
        </g>
        <g>
          <g>
            <path d="M175.3,34l4.65-.7a6.46,6.46,0,0,0,6.64,4.94c2.84,0,5.5-1.36,5.5-3.8,0-1.51-1-2.47-3-3.1l-6.87-2c-2.36-.7-5.94-2.14-5.94-6.83,0-5.13,4.32-7.78,9.74-7.75s9.26,2.84,10.48,7.79l-4.79.81A5.7,5.7,0,0,0,186,19c-2.66-.07-5,1.29-5,3.36s2.06,2.73,3.84,3.21l4.76,1.29c2.58.74,7.12,2,7.12,7.31,0,5.53-5,8.3-10.41,8.3C180.5,42.45,176.15,39.24,175.3,34Z" style="fill: #fff"/>
            <path d="M208.06,38.28a4.78,4.78,0,0,0,4.65-2.84l4.39,1.33a9.3,9.3,0,0,1-8.81,5.68c-6,0-10.15-4.24-10.15-10.29,0-6.54,4.06-10.74,9.92-10.74,6.17,0,9.78,4.57,9.27,11.77h-14.4C203.27,36.47,205,38.28,208.06,38.28Zm-5-8.49h9.77c-.4-3.09-1.84-4.5-4.57-4.5C205.26,25.29,203.56,26.84,203.05,29.79Z" style="fill: #fff"/>
            <path d="M226,33.52c0,1.55-.08,2.81.4,3.58.89,1.44,2.95,1.44,5.46,1.07V41.9c-4,.77-8,.4-9.52-2.44-.92-1.73-.77-3.43-.77-5.72v-8.3H218V22h3.62V16.44H226V22h5.86v3.47H226Z" style="fill: #fff"/>
          </g>
          <g>
            <path d="M242.2,15.33h4.42V41.9H242.2Z" style="fill: #fff"/>
            <path d="M258.17,19.5h-8.6V15.33h21.67V19.5h-8.6V41.9h-4.47Z" style="fill: #fff"/>
          </g>
          <g>
            <path d="M280.73,15.33h16v4.43H285.16V26.4h9.34v4.43h-9.34V41.9h-4.43Z" style="fill: #f05323"/>
            <path d="M308.48,22V26.1a5.86,5.86,0,0,0-4.13.48c-1.81,1-2.62,2.88-2.62,5.21V41.9h-4.47V22h3.95v3.18a5.84,5.84,0,0,1,2-2.14A7.51,7.51,0,0,1,308.48,22Z" style="fill: #f05323"/>
            <path d="M318.41,38.28a4.79,4.79,0,0,0,4.65-2.84l4.39,1.33a9.32,9.32,0,0,1-8.82,5.68c-6,0-10.15-4.24-10.15-10.29,0-6.54,4.06-10.74,9.93-10.74,6.16,0,9.78,4.57,9.26,11.77H313.28C313.61,36.47,315.38,38.28,318.41,38.28Zm-5-8.49h9.78c-.41-3.09-1.85-4.5-4.58-4.5C315.6,25.29,313.91,26.84,313.39,29.79Z" style="fill: #f05323"/>
            <path d="M339.14,38.28a4.78,4.78,0,0,0,4.65-2.84l4.39,1.33a9.3,9.3,0,0,1-8.82,5.68c-6,0-10.14-4.24-10.14-10.29,0-6.54,4.06-10.74,9.92-10.74,6.16,0,9.78,4.57,9.26,11.77H334C334.35,36.47,336.12,38.28,339.14,38.28Zm-5-8.49h9.78c-.4-3.09-1.84-4.5-4.57-4.5C336.34,25.29,334.64,26.84,334.12,29.79Z" style="fill: #f05323"/>
          </g>
        </g>
      </g>
    </g>
  </g>
</svg>
