<svg xmlns="http://www.w3.org/2000/svg" width="340.16" height="54.29" viewBox="0 0 340.16 54.29">
  <g id="Layer_2" data-name="Layer 2">
    <g id="Layer_1-2" data-name="Layer 1">
      <g>
        <g>
          <path d="M0,37.77l9.13-1.38c1.53,6.23,6.75,9.71,13.05,9.71,5.58,0,10.8-2.68,10.8-7.46,0-3-1.88-4.86-5.8-6.09L13.7,28.63C9.06,27.26,2,24.43,2,15.22,2,5.15,10.51-.07,21.17,0S39.36,5.58,41.75,15.3l-9.42,1.59C31.17,11.38,26.39,8.26,21,8.19c-5.22-.14-9.78,2.54-9.78,6.6s4.06,5.36,7.53,6.3l9.36,2.54c5.07,1.45,14,4,14,14.35,0,10.88-9.79,16.31-20.45,16.31C10.22,54.29,1.67,48,0,37.77Z" style="fill: #3e4344"/>
          <path d="M64.37,46.1c4.28,0,7.46-2,9.13-5.58l8.63,2.61c-3,7.1-9.72,11.16-17.33,11.16C53,54.29,44.87,46,44.87,34.07c0-12.83,8-21.09,19.5-21.09,12.1,0,19.21,9,18.19,23.12H54.29C54.94,42.55,58.42,46.1,64.37,46.1ZM54.51,29.43H73.72c-.8-6.09-3.63-8.84-9-8.84C58.86,20.59,55.52,23.63,54.51,29.43Z" style="fill: #3e4344"/>
          <path d="M99.59,36.75c0,3-.14,5.51.8,7,1.74,2.83,5.8,2.83,10.73,2.1v7.33c-7.76,1.52-15.66.79-18.7-4.79C90.61,45,90.9,41.68,90.9,37.19V20.88H83.79V14.06H90.9V3.19h8.69V14.06h11.53v6.82H99.59Z" style="fill: #3e4344"/>
        </g>
        <g>
          <path d="M131.42,1h8.7V53.21h-8.7Z" style="fill: #3e4344"/>
          <path d="M162.8,9.21H145.91V1h42.56V9.21H171.58v44H162.8Z" style="fill: #3e4344"/>
        </g>
        <g>
          <path d="M207.12,1h31.39V9.71H215.82V22.76h18.34v8.7H215.82V53.21h-8.7Z" style="fill: #f05323"/>
          <path d="M261.63,14.06v8.12a11.56,11.56,0,0,0-8.12.94c-3.55,2-5.14,5.66-5.14,10.23V53.21H239.6V14.06h7.75V20.3a11.55,11.55,0,0,1,3.92-4.21A14.73,14.73,0,0,1,261.63,14.06Z" style="fill: #f05323"/>
          <path d="M281.13,46.1c4.28,0,7.47-2,9.14-5.58l8.62,2.61c-3,7.1-9.71,11.16-17.32,11.16-11.82,0-19.94-8.33-19.94-20.22,0-12.83,8-21.09,19.5-21.09,12.11,0,19.21,9,18.2,23.12H271.06C271.71,42.55,275.19,46.1,281.13,46.1Zm-9.86-16.67h19.21c-.79-6.09-3.62-8.84-9-8.84C275.62,20.59,272.29,23.63,271.27,29.43Z" style="fill: #f05323"/>
          <path d="M321.87,46.1c4.28,0,7.46-2,9.13-5.58l8.63,2.61c-3,7.1-9.72,11.16-17.33,11.16-11.81,0-19.93-8.33-19.93-20.22,0-12.83,8-21.09,19.5-21.09,12.1,0,19.21,9,18.19,23.12H311.79C312.44,42.55,315.92,46.1,321.87,46.1ZM312,29.43h19.21c-.8-6.09-3.63-8.84-9-8.84C316.36,20.59,313,23.63,312,29.43Z" style="fill: #f05323"/>
        </g>
      </g>
    </g>
  </g>
</svg>
