<svg xmlns="http://www.w3.org/2000/svg" width="195.82" height="122.16" viewBox="0 0 195.82 122.16">
  <g id="Layer_2" data-name="Layer 2">
    <g id="Layer_1-2" data-name="Layer 1">
      <g>
        <g>
          <path d="M0,39.09l9.45-1.43C11,44.11,16.43,47.71,23,47.71c5.77,0,11.17-2.77,11.17-7.72,0-3.08-2-5-6-6.3l-13.95-4C9.38,28.21,2.1,25.28,2.1,15.76,2.1,5.33,10.88-.07,21.91,0s18.83,5.78,21.3,15.83l-9.75,1.65c-1.2-5.7-6.15-8.93-11.7-9S11.63,11.1,11.63,15.31c0,4,4.2,5.55,7.8,6.52l9.68,2.63c5.25,1.5,14.48,4.12,14.48,14.85,0,11.26-10.13,16.88-21.16,16.88C10.58,56.19,1.73,49.67,0,39.09Z" style="fill: #fff"/>
          <path d="M66.62,47.71c4.42,0,7.72-2,9.45-5.77L85,44.64C81.92,52,75,56.19,67.07,56.19c-12.23,0-20.63-8.63-20.63-20.93,0-13.28,8.25-21.83,20.18-21.83,12.53,0,19.88,9.3,18.83,23.93H56.19C56.87,44,60.47,47.71,66.62,47.71ZM56.42,30.46H76.3c-.83-6.3-3.76-9.15-9.31-9.15C60.92,21.31,57.47,24.46,56.42,30.46Z" style="fill: #fff"/>
          <path d="M103.08,38c0,3.15-.15,5.7.82,7.27,1.8,2.93,6,2.93,11.11,2.18v7.58c-8,1.57-16.21.82-19.36-5-1.88-3.53-1.58-7-1.58-11.63V21.61H86.72v-7h7.35V3.3h9V14.56H115v7H103.08Z" style="fill: #fff"/>
        </g>
        <g>
          <path d="M136.78,1.05h9v54h-9Z" style="fill: #fff"/>
          <path d="M169.27,9.53H151.79V1.05h44V9.53H178.35V55.07h-9.08Z" style="fill: #fff"/>
        </g>
        <g>
          <path d="M5.6,67H38.08v9H14.6V89.53h19v9h-19V121h-9Z" style="fill: #f05323"/>
          <path d="M62,80.52v8.41a11.89,11.89,0,0,0-8.4,1c-3.68,2-5.33,5.85-5.33,10.58V121H39.2V80.52h8V87a11.93,11.93,0,0,1,4.05-4.36A15.26,15.26,0,0,1,62,80.52Z" style="fill: #f05323"/>
          <path d="M82.19,113.68c4.43,0,7.73-2,9.45-5.77l8.93,2.7c-3.07,7.35-10,11.55-17.93,11.55-12.23,0-20.63-8.63-20.63-20.93C62,88,70.26,79.4,82.19,79.4c12.53,0,19.88,9.3,18.83,23.93H71.76C72.44,110,76,113.68,82.19,113.68ZM72,96.43H91.87c-.83-6.3-3.75-9.15-9.3-9.15C76.49,87.28,73,90.43,72,96.43Z" style="fill: #f05323"/>
          <path d="M124.35,113.68c4.43,0,7.73-2,9.46-5.77l8.92,2.7c-3.07,7.35-10,11.55-17.93,11.55-12.23,0-20.63-8.63-20.63-20.93,0-13.28,8.25-21.83,20.18-21.83,12.53,0,19.88,9.3,18.83,23.93H113.92C114.6,110,118.2,113.68,124.35,113.68Zm-10.2-17.25H134c-.82-6.3-3.75-9.15-9.3-9.15C118.65,87.28,115.2,90.43,114.15,96.43Z" style="fill: #f05323"/>
        </g>
      </g>
    </g>
  </g>
</svg>
