<svg xmlns="http://www.w3.org/2000/svg" width="410" height="112.07" viewBox="0 0 410 112.07">
  <g id="Layer_2" data-name="Layer 2">
    <g id="Layer_1-2" data-name="Layer 1">
      <g>
        <path d="M229.82,7.51a25,25,0,0,1,25,25V79.61a25,25,0,0,1-25,25H182.67a25,25,0,0,1-24.95-25V32.46a25,25,0,0,1,24.95-25h47.15m0-7.51H182.67a32.46,32.46,0,0,0-32.46,32.46V79.61a32.46,32.46,0,0,0,32.46,32.46h47.15a32.46,32.46,0,0,0,32.46-32.46V32.46A32.46,32.46,0,0,0,229.82,0Z" style="fill: #64656a"/>
        <path d="M354,7.51A48.53,48.53,0,1,1,305.44,56,48.58,48.58,0,0,1,354,7.51M354,0h0a56,56,0,0,0-56,56h0a56,56,0,0,0,56,56h0a56,56,0,0,0,56-56h0A56,56,0,0,0,354,0Z" style="fill: #fc5001"/>
        <path d="M104.56,7.51v97.05h-97v-97h97.05M109,0H3A3,3,0,0,0,0,3V109a3,3,0,0,0,3,3H109a3,3,0,0,0,3-3V3a3,3,0,0,0-3-3Z" style="fill: #bebebf"/>
      </g>
    </g>
  </g>
</svg>
