<svg xmlns="http://www.w3.org/2000/svg" width="410.89" height="113.01" viewBox="0 0 410.89 113.01">
  <g id="Layer_2" data-name="Layer 2">
    <g id="Layer_1-2" data-name="Layer 1">
      <g>
        <g>
          <polygon points="150.21 36.01 150.21 33.7 183.91 0 186.22 0 150.21 36.01" style="fill: #64656a"/>
          <path d="M150.37,83.61l-.07-1c0-.31,0-.63-.05-1v-.2L231.64,0h.2l.87,0,1,.06-.66.74Z" style="fill: #64656a"/>
          <path d="M163.36,106.44l-.33-.27-.54-.43-.42-.33L255.6,11.89l.33.39c.16.19.31.37.46.57l.24.33-.29.28Z" style="fill: #64656a"/>
          <polygon points="204.55 113.01 202.25 113.01 203.05 112.21 263.21 52.05 263.21 54.36 204.55 113.01" style="fill: #64656a"/>
          <polygon points="150.21 59.89 150.21 57.58 207.78 0 210.1 0 209.3 0.8 150.21 59.89" style="fill: #64656a"/>
          <path d="M180.76,112.92h-.21l-.92-.08-1-.1,84.28-84.28.1,1c0,.31.06.61.08.92v.21l-.15.15Z" style="fill: #64656a"/>
          <polygon points="228.43 113.01 226.13 113.01 263.21 75.93 263.21 78.24 228.43 113.01" style="fill: #64656a"/>
          <polygon points="150.21 47.95 150.21 45.64 195.84 0 198.16 0 150.21 47.95" style="fill: #64656a"/>
          <path d="M152.86,93.06l-.26-.65c-.11-.24-.2-.48-.29-.72l-.11-.29.22-.21L241.61,2l1.68.64Z" style="fill: #64656a"/>
          <path d="M171,110.71l-.28-.11-.67-.28-.64-.28.46-.5,90.31-90.31.28.6a6.29,6.29,0,0,1,.3.71l.11.28-.21.23Z" style="fill: #64656a"/>
          <polygon points="216.49 113.01 214.19 113.01 263.21 63.99 263.21 66.3 216.49 113.01" style="fill: #64656a"/>
          <polygon points="150.21 71.83 150.21 69.53 219.74 0 222.04 0 221.24 0.8 150.21 71.83" style="fill: #64656a"/>
          <path d="M151.87,22.41l.86-2.14c.27-.64.54-1.25.84-1.84l.09-.12,15-15c.6-.29,1.21-.57,1.83-.83l2.22-.95Z" style="fill: #64656a"/>
          <path d="M157.33,100.54l-.33-.42c-.13-.16-.25-.34-.38-.51l-.24-.32.24-.35,92.79-92.8.33.22.58.44.41.33Z" style="fill: #64656a"/>
          <polygon points="192.61 113.01 190.31 113.01 191.11 112.21 263.21 40.11 263.21 42.41 192.61 113.01" style="fill: #64656a"/>
          <path d="M239.22,111.86,262.05,89l-.69,2c-.19.54-.39,1.08-.61,1.61l-.1.15-17.86,17.81c-.54.23-1.08.43-1.62.62Z" style="fill: #64656a"/>
        </g>
        <g>
          <path d="M304.86,29.09l2.47-3.79c.75-1.16,1.59-2.32,2.55-3.55L319.64,12q1.77-1.41,3.61-2.61l3.82-2.51Z" style="fill: #fc5001"/>
          <path d="M302.62,79.08l-.27-.63c-.11-.26-.21-.49-.3-.73l-.11-.28L375.37,4l.28.11.73.29.63.27Z" style="fill: #fc5001"/>
          <path d="M317.9,99.62l-.49-.43-.37-.33-.35-.33,79.77-79.77.33.35c.12.12.23.25.34.38l.42.48Z" style="fill: #fc5001"/>
          <path d="M352.32,113h-.21l-.95,0-1-.07.74-.73,59.92-59.93.07,1c0,.31,0,.6,0,.91v.2l-.14.2Z" style="fill: #fc5001"/>
          <path d="M298,59.78l-.06-1c0-.33,0-.65,0-1v-.19L355.5,0h.19c.33,0,.65,0,1,0l1,.06Z" style="fill: #fc5001"/>
          <path d="M332.72,108.7l-.3-.13c-.23-.1-.46-.2-.69-.32l-.6-.28,74.76-74.76.29.58c.08.16.15.32.22.49l.22.51Z" style="fill: #fc5001"/>
          <path d="M379.63,107.22,405.15,81.7l-1.79,3.11c-.53.9-1.05,1.75-1.62,2.61l-16.32,16.33c-.91.62-1.77,1.14-2.69,1.68Z" style="fill: #fc5001"/>
          <path d="M298.72,47.16l.25-1.45c.06-.4.15-.8.24-1.2l0-.13.11-.15,42.9-42.91.14,0L343.64,1l1.5-.29Z" style="fill: #fc5001"/>
          <path d="M306.78,86.86l-.31-.48c-.14-.21-.27-.41-.39-.62l-.19-.31.26-.26L383.36,8l.31.18.64.4.48.31Z" style="fill: #fc5001"/>
          <path d="M324.83,104.63l-.31-.19a7.33,7.33,0,0,1-.63-.4l-.46-.32L401.65,25.5,402,26a7.33,7.33,0,0,1,.4.63l.19.31Z" style="fill: #fc5001"/>
          <path d="M362.49,112.43,410.4,64.51,410.15,66c-.07.41-.14.82-.22,1.22l0,.14L365.26,112l-.57.1-.79.13Z" style="fill: #fc5001"/>
          <path d="M299.58,70.18l-.43-1.89L366.21,1.24l.24.05.83.17.84.19Z" style="fill: #fc5001"/>
          <polygon points="311.88 93.7 310.82 92.44 390.37 12.9 391.63 13.95 311.88 93.7" style="fill: #fc5001"/>
          <path d="M341.75,111.59l-.26-.07-.78-.18-.82-.19L409.08,42l.43,1.89Z" style="fill: #fc5001"/>
        </g>
        <g>
          <polygon points="0 36.01 0 33.7 33.7 0 36.01 0 0 36.01" style="fill: #bebebf"/>
          <polygon points="0 83.77 0 81.46 81.47 0 83.77 0 82.97 0.8 0 83.77" style="fill: #bebebf"/>
          <polygon points="6.58 113.01 4.27 113.01 113 4.29 113 6.59 6.58 113.01" style="fill: #bebebf"/>
          <polygon points="102.1 113.01 99.8 113.01 113 99.81 113 102.11 102.1 113.01" style="fill: #bebebf"/>
          <polygon points="54.34 113.01 52.04 113.01 52.84 112.21 113 52.05 113 54.36 54.34 113.01" style="fill: #bebebf"/>
          <polygon points="0 59.89 0 57.58 57.58 0 59.89 0 59.09 0.8 0 59.89" style="fill: #bebebf"/>
          <polygon points="0 12.13 0 9.81 9.81 0 12.13 0 0 12.13" style="fill: #bebebf"/>
          <polygon points="30.46 113.01 28.15 113.01 113 28.17 113 30.48 30.46 113.01" style="fill: #bebebf"/>
          <polygon points="78.22 113.01 75.92 113.01 113 75.93 113 78.24 78.22 113.01" style="fill: #bebebf"/>
          <polygon points="0 47.95 0 45.64 45.63 0 47.95 0 0 47.95" style="fill: #bebebf"/>
          <polygon points="0 95.71 0 93.4 93.41 0 95.71 0 94.91 0.8 0 95.71" style="fill: #bebebf"/>
          <polygon points="18.52 113.01 16.21 113.01 113 16.23 113 18.53 18.52 113.01" style="fill: #bebebf"/>
          <polygon points="66.28 113.01 63.98 113.01 113 63.99 113 66.3 66.28 113.01" style="fill: #bebebf"/>
          <polygon points="0 71.83 0 69.53 69.53 0 71.83 0 71.03 0.8 0 71.83" style="fill: #bebebf"/>
          <polygon points="0 24.07 0 21.76 21.75 0 24.07 0 0 24.07" style="fill: #bebebf"/>
          <polygon points="0 107.65 0 105.34 105.34 0 107.65 0 106.85 0.8 0 107.65" style="fill: #bebebf"/>
          <polygon points="42.4 113.01 40.09 113.01 113 40.11 113 42.41 42.4 113.01" style="fill: #bebebf"/>
          <polygon points="90.16 113.01 87.86 113.01 113 87.87 113 90.17 90.16 113.01" style="fill: #bebebf"/>
        </g>
      </g>
    </g>
  </g>
</svg>
