<svg xmlns="http://www.w3.org/2000/svg" width="410" height="112.07" viewBox="0 0 410 112.07">
  <g id="Layer_2" data-name="Layer 2">
    <g id="Layer_1-2" data-name="Layer 1">
      <g>
        <g>
          <path d="M187.93,0,150.21,37.72V32.46c0-.82,0-1.64.09-2.45L180.22.09C181,0,181.84,0,182.66,0Z" style="fill: #64656a"/>
          <path d="M235.24.45,150.66,85a32.23,32.23,0,0,1-.45-5.42V77.86L228.07,0h1.75A32.23,32.23,0,0,1,235.24.45Z" style="fill: #64656a"/>
          <path d="M256.92,14.59,164.8,106.71a32.22,32.22,0,0,1-4.26-3.35l93-93A32,32,0,0,1,256.92,14.59Z" style="fill: #64656a"/>
          <polygon points="262.27 49.39 262.27 57 207.2 112.07 199.59 112.07 262.27 49.39" style="fill: #64656a"/>
          <polygon points="211.81 0 150.21 61.6 150.21 53.98 204.19 0 211.81 0" style="fill: #64656a"/>
          <path d="M262.27,32.46v.66l-78.95,78.95h-.66a32.2,32.2,0,0,1-6.33-.62l85.32-85.32A32.13,32.13,0,0,1,262.27,32.46Z" style="fill: #64656a"/>
          <path d="M262.27,73.27v6.34c0,.44,0,.88,0,1.31L231.12,112c-.43,0-.86,0-1.3,0h-6.35Z" style="fill: #64656a"/>
          <polygon points="199.87 0 150.21 49.66 150.21 42.04 192.25 0 199.87 0" style="fill: #64656a"/>
          <path d="M244.25,3.38,153.59,94a31.38,31.38,0,0,1-2.13-5.49l87.3-87.3A31.69,31.69,0,0,1,244.25,3.38Z" style="fill: #64656a"/>
          <path d="M260.77,22.68l-87.89,87.89a31.62,31.62,0,0,1-5.36-2.25l91-91A32.17,32.17,0,0,1,260.77,22.68Z" style="fill: #64656a"/>
          <polygon points="262.27 61.33 262.27 68.95 219.15 112.07 211.53 112.07 262.27 61.33" style="fill: #64656a"/>
          <polygon points="223.75 0 150.21 73.54 150.21 65.92 216.13 0 223.75 0" style="fill: #64656a"/>
          <path d="M175.11.88l-24,24A32.52,32.52,0,0,1,175.11.88Z" style="fill: #64656a"/>
          <path d="M251.37,8.2l-93,93a31.72,31.72,0,0,1-3.26-4.36L247,4.93A32.32,32.32,0,0,1,251.37,8.2Z" style="fill: #64656a"/>
          <polygon points="262.27 37.45 262.27 45.06 195.26 112.07 187.65 112.07 262.27 37.45" style="fill: #64656a"/>
          <path d="M261.67,85.81a32.17,32.17,0,0,1-6.73,14.35l-4.59,4.59A32.33,32.33,0,0,1,236,111.48Z" style="fill: #64656a"/>
        </g>
        <g>
          <path d="M330.53,5.12,303.05,32.6A56.22,56.22,0,0,1,330.53,5.12Z" style="fill: #fc5001"/>
          <path d="M378,5.4,303.33,80.08a55.6,55.6,0,0,1-2.22-5.4l71.5-71.5A55.6,55.6,0,0,1,378,5.4Z" style="fill: #fc5001"/>
          <path d="M397.93,21.3,319.23,100a52.64,52.64,0,0,1-4.07-3.54l79.23-79.23A52.64,52.64,0,0,1,397.93,21.3Z" style="fill: #fc5001"/>
          <path d="M410,56c0,.33,0,.65,0,1l-55.05,55.05h-1a57,57,0,0,1-6.3-.35l62-62A57,57,0,0,1,410,56Z" style="fill: #fc5001"/>
          <path d="M359.28.25l-61.1,61.1c-.17-1.75-.25-3.52-.25-5.32,0-.7,0-1.4,0-2.09L351.87,0c.69,0,1.39,0,2.09,0C355.75,0,357.53.08,359.28.25Z" style="fill: #fc5001"/>
          <path d="M406.53,36.58l-72,72a54.62,54.62,0,0,1-5.32-2.29l75.05-75A54.62,54.62,0,0,1,406.53,36.58Z" style="fill: #fc5001"/>
          <path d="M405.72,77.54a56.24,56.24,0,0,1-30.25,30.25Z" style="fill: #fc5001"/>
          <path d="M347.18.41,298.34,49.25a55.38,55.38,0,0,1,2.05-9.67L337.51,2.46A55.38,55.38,0,0,1,347.18.41Z" style="fill: #fc5001"/>
          <path d="M385.58,9.77,307.7,87.65a55,55,0,0,1-2.9-4.71L380.87,6.87A54.09,54.09,0,0,1,385.58,9.77Z" style="fill: #fc5001"/>
          <path d="M402.74,28.43l-76.38,76.38c-1.6-.91-3.16-1.89-4.66-3l78.09-78.09C400.85,25.27,401.83,26.83,402.74,28.43Z" style="fill: #fc5001"/>
          <path d="M409.73,61.59A55.44,55.44,0,0,1,408,71l-39.1,39.1a55.75,55.75,0,0,1-9.37,1.75Z" style="fill: #fc5001"/>
          <path d="M369.33,2.14,300.07,71.4a53.55,53.55,0,0,1-1.39-6.23L363.1.75A53.55,53.55,0,0,1,369.33,2.14Z" style="fill: #fc5001"/>
          <path d="M392.21,15.08,313,94.28c-1.23-1.31-2.39-2.69-3.49-4.12l78.57-78.57C389.52,12.69,390.9,13.85,392.21,15.08Z" style="fill: #fc5001"/>
          <path d="M409.1,46l-65.21,65.21a52.18,52.18,0,0,1-6.13-1.49l69.85-69.85A52.18,52.18,0,0,1,409.1,46Z" style="fill: #fc5001"/>
        </g>
        <g>
          <polygon points="37.72 0 0 37.72 0 30.09 30.09 0 37.72 0" style="fill: #bebebf"/>
          <polygon points="85.48 0 0 85.49 0 77.86 77.86 0 85.48 0" style="fill: #bebebf"/>
          <path d="M112.06,3V9.24L9.24,112.07H3a2.88,2.88,0,0,1-1.17-.24l110-110A2.85,2.85,0,0,1,112.06,3Z" style="fill: #bebebf"/>
          <polygon points="112.06 97.15 112.06 104.77 104.76 112.07 97.14 112.07 112.06 97.15" style="fill: #bebebf"/>
          <polygon points="112.06 49.38 112.06 57.01 57 112.07 49.38 112.07 112.06 49.38" style="fill: #bebebf"/>
          <polygon points="61.6 0 0 61.6 0 53.97 53.97 0 61.6 0" style="fill: #bebebf"/>
          <polygon points="13.84 0 0 13.84 0 6.21 6.21 0 13.84 0" style="fill: #bebebf"/>
          <polygon points="112.06 25.5 112.06 33.12 33.12 112.07 25.49 112.07 112.06 25.5" style="fill: #bebebf"/>
          <polygon points="112.06 73.26 112.06 80.89 80.88 112.07 73.27 112.07 112.06 73.26" style="fill: #bebebf"/>
          <polygon points="49.66 0 0 49.66 0 42.03 42.03 0 49.66 0" style="fill: #bebebf"/>
          <polygon points="97.42 0 0 97.43 0 89.8 89.8 0 97.42 0" style="fill: #bebebf"/>
          <polygon points="112.06 13.56 112.06 21.18 21.18 112.07 13.55 112.07 112.06 13.56" style="fill: #bebebf"/>
          <polygon points="112.06 61.32 112.06 68.95 68.94 112.07 61.32 112.07 112.06 61.32" style="fill: #bebebf"/>
          <polygon points="73.54 0 0 73.54 0 65.92 65.92 0 73.54 0" style="fill: #bebebf"/>
          <polygon points="25.78 0 0 25.78 0 18.15 18.15 0 25.78 0" style="fill: #bebebf"/>
          <path d="M109.34,0,0,109.35c0-.1,0-.21,0-.31v-7.3L101.74,0H109A1.51,1.51,0,0,1,109.34,0Z" style="fill: #bebebf"/>
          <polygon points="112.06 37.44 112.06 45.06 45.06 112.07 37.43 112.07 112.06 37.44" style="fill: #bebebf"/>
          <polygon points="112.06 85.21 112.06 92.83 92.82 112.07 85.2 112.07 112.06 85.21" style="fill: #bebebf"/>
        </g>
      </g>
    </g>
  </g>
</svg>
