<svg xmlns="http://www.w3.org/2000/svg" width="412.78" height="114.99" viewBox="0 0 412.78 114.99">
  <g id="Layer_2" data-name="Layer 2">
    <g id="Layer_1-2" data-name="Layer 1">
      <g>
        <g>
          <polygon points="150.21 39.27 150.21 34.3 150.62 33.88 184.44 0.06 189.42 0.06 150.21 39.27" style="fill: #64656a"/>
          <polygon points="150.51 86.73 150.2 82.06 150.65 81.61 232.21 0.05 236.89 0.35 150.51 86.73" style="fill: #64656a"/>
          <path d="M164.35,108.71l-1.23-1-.31-.25-1.18-1,95-94.95,1,1.17c.18.22.36.44.51.66l.66,1Z" style="fill: #64656a"/>
          <polygon points="205.87 114.95 200.91 114.95 265.09 50.77 265.09 55.74 264.67 56.16 205.87 114.95" style="fill: #64656a"/>
          <polygon points="150.21 63.15 150.21 58.18 150.62 57.76 208.32 0.06 213.3 0.06 150.21 63.15" style="fill: #64656a"/>
          <path d="M182.05,114.88l-.63,0c-.34,0-.67,0-1-.1l-2.82-.37,86.91-86.91.37,2.82c.05.33.08.66.1,1l0,.64-.46.46Z" style="fill: #64656a"/>
          <polygon points="229.75 114.95 224.79 114.95 265.09 74.65 265.09 79.62 264.67 80.03 229.75 114.95" style="fill: #64656a"/>
          <polygon points="150.21 51.21 150.21 46.24 150.62 45.82 196.38 0.06 201.36 0.06 150.21 51.21" style="fill: #64656a"/>
          <path d="M153.5,95.68l-.82-1.9c-.11-.24-.2-.48-.29-.73l-.32-.85.62-.69L242.3,1.9l.85.32c.26.1.51.19.76.3l1.94.81Z" style="fill: #64656a"/>
          <path d="M172.16,112.83l-.88-.38c-.21-.09-.42-.19-.64-.27l-2-.78,92.84-92.84.82,1.9c.13.3.22.52.31.74l.33.85Z" style="fill: #64656a"/>
          <polygon points="217.81 114.95 212.85 114.95 265.09 62.71 265.09 67.68 264.67 68.09 217.81 114.95" style="fill: #64656a"/>
          <polygon points="150.21 75.09 150.21 70.13 150.62 69.71 220.27 0.06 225.24 0.06 150.21 75.09" style="fill: #64656a"/>
          <path d="M150.21,27.33l2.59-6.42c.26-.64.56-1.29.88-1.93l.1-.2L169,3.62l.21-.11c.68-.33,1.3-.61,1.89-.85L177.54,0Z" style="fill: #64656a"/>
          <path d="M158.21,102.91l-1-1.19-.48-.63-.71-1L250.27,5.89,253.12,8,252,9.16Z" style="fill: #64656a"/>
          <polygon points="193.93 114.95 188.97 114.95 265.09 38.83 265.09 43.79 264.67 44.2 193.93 114.95" style="fill: #64656a"/>
          <path d="M236.68,115l28.58-28.57-2.06,5.85c-.2.56-.41,1.13-.65,1.68l-.1.25-18.13,18.13-.27.1c-.54.22-1.09.43-1.65.62Z" style="fill: #64656a"/>
        </g>
        <g>
          <path d="M300,37.22l7.51-11.44c.82-1.25,1.7-2.48,2.63-3.65l.11-.13L320,12.24c1.25-1,2.45-1.84,3.65-2.63L335.09,2.1Z" style="fill: #fc5001"/>
          <path d="M303.25,81.71l-.83-1.9c-.12-.29-.22-.52-.31-.77l-.32-.85L376.06,3.92l.85.32.71.29,1.9.82-1.41,1.49Z" style="fill: #fc5001"/>
          <path d="M318.84,101.94l-1-.93-.3-.28-1.31-1.15,1.06-1.06,80.16-80.15L399.78,21l-.94.94Z" style="fill: #fc5001"/>
          <path d="M353.62,114.92l-.61,0-1-.05-3.1-.2,63.59-63.6.2,3.11c0,.31,0,.62,0,.93l0,.62-.43.48Z" style="fill: #fc5001"/>
          <path d="M298.17,62.9,298,59.78c0-.34,0-.68,0-1v-.58l.41-.42L356,.08h.58c.35,0,.68,0,1,0l3.12.19Z" style="fill: #fc5001"/>
          <polygon points="333.85 110.8 330.4 109.3 407.14 32.55 408.64 35.91 407.99 36.66 333.85 110.8" style="fill: #fc5001"/>
          <path d="M374.67,112.79,410.5,77l-5.39,9.3c-.52.9-1.07,1.79-1.63,2.65l-.19.22-16.53,16.49c-.86.56-1.74,1.1-2.63,1.62Z" style="fill: #fc5001"/>
          <path d="M298.24,50.9l.74-4.36c.07-.41.16-.82.25-1.24l.09-.4.3-.35L342.7,1.46l.41-.09,1.27-.25,4.5-.86Z" style="fill: #fc5001"/>
          <path d="M307.57,89.33l-.95-1.45c-.14-.22-.28-.43-.41-.65l-.57-.94L384.16,7.78l.94.56.65.41,1.45.95Z" style="fill: #fc5001"/>
          <path d="M325.93,106.79l-.93-.53c-.23-.13-.44-.27-.66-.41l-1.46-.94,1.21-1.25L402.76,25l.95,1.46.41.64.56.95-.78.78Z" style="fill: #fc5001"/>
          <path d="M360.73,114.78l52-52L412,67.12c-.08.42-.15.83-.23,1.24l-.08.42-45.06,45.06-.42.08c-.42.08-.84.16-1.26.22Z" style="fill: #fc5001"/>
          <path d="M300,73.05,299.06,69l.55-.55,67.22-67.2.72.13.87.18,2.5.56Z" style="fill: #fc5001"/>
          <polygon points="312.75 96.09 310.49 93.39 311.4 92.47 391.25 12.62 393.96 14.88 312.75 96.09" style="fill: #fc5001"/>
          <path d="M343,113.64l-3.93-1,71.53-71.53.64,2.87c0,.15.07.29.1.44l.17.75Z" style="fill: #fc5001"/>
        </g>
        <g>
          <polygon points="0 39.27 0 34.3 0.41 33.88 34.23 0.06 39.21 0.06 0 39.27" style="fill: #bebebf"/>
          <polygon points="0 87.03 0 82.06 0.41 81.64 82 0.06 86.97 0.06 0 87.03" style="fill: #bebebf"/>
          <polygon points="7.9 114.95 2.93 114.95 114.88 3.01 114.88 7.97 114.46 8.38 7.9 114.95" style="fill: #bebebf"/>
          <polygon points="103.42 114.95 98.46 114.95 114.88 98.53 114.88 103.49 103.42 114.95" style="fill: #bebebf"/>
          <polygon points="55.66 114.95 50.7 114.95 114.88 50.77 114.88 55.74 114.46 56.16 55.66 114.95" style="fill: #bebebf"/>
          <polygon points="0 63.15 0 58.18 0.41 57.76 58.12 0.06 63.09 0.06 0 63.15" style="fill: #bebebf"/>
          <polygon points="0 15.39 0 10.42 10.35 0.06 15.33 0.06 0 15.39" style="fill: #bebebf"/>
          <polygon points="31.78 114.95 26.81 114.95 114.88 26.89 114.88 31.85 114.46 32.27 31.78 114.95" style="fill: #bebebf"/>
          <polygon points="79.54 114.95 74.58 114.95 114.88 74.65 114.88 79.62 114.46 80.03 79.54 114.95" style="fill: #bebebf"/>
          <polygon points="0 51.21 0 46.24 0.41 45.82 46.17 0.06 51.15 0.06 0 51.21" style="fill: #bebebf"/>
          <polygon points="0 98.97 0 94 0.41 93.58 93.94 0.06 98.91 0.06 0 98.97" style="fill: #bebebf"/>
          <polygon points="19.84 114.95 14.87 114.95 114.88 14.95 114.88 19.91 114.46 20.32 19.84 114.95" style="fill: #bebebf"/>
          <polygon points="67.6 114.95 62.64 114.95 114.88 62.71 114.88 67.68 114.46 68.09 67.6 114.95" style="fill: #bebebf"/>
          <polygon points="0 75.09 0 70.13 0.41 69.71 70.06 0.06 75.03 0.06 0 75.09" style="fill: #bebebf"/>
          <polygon points="0 27.33 0 22.36 22.3 0.06 27.27 0.06 0 27.33" style="fill: #bebebf"/>
          <polygon points="0 110.91 0 105.94 0.41 105.52 105.89 0.06 110.85 0.06 0 110.91" style="fill: #bebebf"/>
          <polygon points="43.72 114.95 38.75 114.95 114.88 38.83 114.88 43.79 114.46 44.2 43.72 114.95" style="fill: #bebebf"/>
          <polygon points="91.48 114.95 86.52 114.95 114.88 86.59 114.88 91.55 91.48 114.95" style="fill: #bebebf"/>
        </g>
      </g>
    </g>
  </g>
</svg>
