<svg xmlns="http://www.w3.org/2000/svg" xmlns:xlink="http://www.w3.org/1999/xlink" width="760.56" height="485.47" viewBox="0 0 760.56 485.47">
  <defs>
    <clipPath id="clip-path" transform="translate(160.62 7.23)">
      <rect x="200.15" y="191.2" width="61.03" height="61.03" rx="17.68" transform="translate(8.95 452.38) rotate(-90)" style="fill: none"/>
    </clipPath>
    <clipPath id="clip-path-2" transform="translate(160.62 7.23)">
      <rect x="280.6" y="113.37" width="61.03" height="61.03" rx="30.52" transform="translate(167.23 454.99) rotate(-90)" style="fill: none"/>
    </clipPath>
    <clipPath id="clip-path-3" transform="translate(160.62 7.23)">
      <rect x="118.34" y="272.87" width="61.03" height="61.03" rx="1.65" transform="translate(-154.52 452.24) rotate(-90)" style="fill: none"/>
    </clipPath>
  </defs>
  <g id="Layer_2" data-name="Layer 2">
    <g id="Layer_1-2" data-name="Layer 1">
      <g>
        <g>
          <g style="clip-path: url(#clip-path)">
            <g>
              <polygon points="109.66 403.8 107.63 403.8 108.53 402.9 430.79 80.65 432.82 80.65 109.66 403.8" style="fill: #636569"/>
              <polygon points="83.65 403.8 81.62 403.8 82.52 402.9 404.78 80.65 406.81 80.65 83.65 403.8" style="fill: #636569"/>
              <polygon points="168.19 403.8 166.16 403.8 167.06 402.9 489.31 80.65 491.35 80.65 168.19 403.8" style="fill: #636569"/>
              <polygon points="194.2 403.8 192.17 403.8 193.07 402.9 515.33 80.65 517.36 80.65 194.2 403.8" style="fill: #636569"/>
              <polygon points="142.18 403.8 140.15 403.8 141.05 402.9 463.3 80.65 465.33 80.65 142.18 403.8" style="fill: #636569"/>
              <polygon points="213.71 403.8 211.68 403.8 212.58 402.9 534.84 80.65 536.86 80.65 213.71 403.8" style="fill: #636569"/>
              <polygon points="265.73 403.8 263.7 403.8 264.6 402.9 586.86 80.65 588.89 80.65 265.73 403.8" style="fill: #636569"/>
              <polygon points="291.74 403.8 289.71 403.8 290.61 402.9 612.87 80.65 614.9 80.65 291.74 403.8" style="fill: #636569"/>
              <polygon points="317.75 403.8 315.72 403.8 316.62 402.9 638.88 80.65 640.91 80.65 317.75 403.8" style="fill: #636569"/>
              <polygon points="239.72 403.8 237.69 403.8 238.59 402.9 560.85 80.65 562.88 80.65 239.72 403.8" style="fill: #636569"/>
              <polygon points="343.76 403.8 341.73 403.8 342.63 402.9 664.89 80.65 666.92 80.65 343.76 403.8" style="fill: #636569"/>
              <polygon points="129.17 403.8 127.14 403.8 128.04 402.9 450.3 80.65 452.33 80.65 129.17 403.8" style="fill: #636569"/>
              <polygon points="96.66 403.8 94.63 403.8 95.53 402.9 417.79 80.65 419.81 80.65 96.66 403.8" style="fill: #636569"/>
              <polygon points="181.19 403.8 179.16 403.8 180.06 402.9 502.32 80.65 504.35 80.65 181.19 403.8" style="fill: #636569"/>
              <polygon points="155.18 403.8 153.15 403.8 154.05 402.9 476.31 80.65 478.34 80.65 155.18 403.8" style="fill: #636569"/>
              <polygon points="226.71 403.8 224.68 403.8 225.58 402.9 547.84 80.65 549.87 80.65 226.71 403.8" style="fill: #636569"/>
              <polygon points="278.73 403.8 276.7 403.8 277.61 402.9 599.86 80.65 601.89 80.65 278.73 403.8" style="fill: #636569"/>
              <polygon points="304.75 403.8 302.72 403.8 303.62 402.9 625.87 80.65 627.9 80.65 304.75 403.8" style="fill: #636569"/>
              <polygon points="330.76 403.8 328.73 403.8 329.63 402.9 651.88 80.65 653.91 80.65 330.76 403.8" style="fill: #636569"/>
              <polygon points="252.72 403.8 250.69 403.8 251.59 402.9 573.85 80.65 575.88 80.65 252.72 403.8" style="fill: #636569"/>
              <polygon points="116.17 403.8 114.14 403.8 115.04 402.9 437.29 80.65 439.32 80.65 116.17 403.8" style="fill: #636569"/>
              <polygon points="122.67 403.8 120.64 403.8 121.54 402.9 443.8 80.65 445.82 80.65 122.67 403.8" style="fill: #636569"/>
              <polygon points="90.15 403.8 88.12 403.8 89.03 402.9 411.28 80.65 413.31 80.65 90.15 403.8" style="fill: #636569"/>
              <polygon points="174.69 403.8 172.66 403.8 173.56 402.9 495.82 80.65 497.85 80.65 174.69 403.8" style="fill: #636569"/>
              <polygon points="200.7 403.8 198.67 403.8 199.57 402.9 521.83 80.65 523.86 80.65 200.7 403.8" style="fill: #636569"/>
              <polygon points="148.68 403.8 146.65 403.8 147.55 402.9 469.81 80.65 471.84 80.65 148.68 403.8" style="fill: #636569"/>
              <polygon points="220.21 403.8 218.18 403.8 219.08 402.9 541.34 80.65 543.37 80.65 220.21 403.8" style="fill: #636569"/>
              <polygon points="272.23 403.8 270.2 403.8 271.1 402.9 593.36 80.65 595.39 80.65 272.23 403.8" style="fill: #636569"/>
              <polygon points="298.24 403.8 296.21 403.8 297.11 402.9 619.37 80.65 621.4 80.65 298.24 403.8" style="fill: #636569"/>
              <polygon points="324.25 403.8 322.22 403.8 323.13 402.9 645.38 80.65 647.41 80.65 324.25 403.8" style="fill: #636569"/>
              <polygon points="246.22 403.8 244.19 403.8 245.09 402.9 567.35 80.65 569.38 80.65 246.22 403.8" style="fill: #636569"/>
              <polygon points="350.26 403.8 348.24 403.8 349.14 402.9 671.39 80.65 673.42 80.65 350.26 403.8" style="fill: #636569"/>
              <polygon points="77.15 403.8 75.12 403.8 76.02 402.9 398.28 80.65 400.31 80.65 77.15 403.8" style="fill: #636569"/>
              <polygon points="135.67 403.8 133.64 403.8 134.54 402.9 456.8 80.65 458.83 80.65 135.67 403.8" style="fill: #636569"/>
              <polygon points="103.16 403.8 101.13 403.8 102.03 402.9 424.29 80.65 426.32 80.65 103.16 403.8" style="fill: #636569"/>
              <polygon points="187.7 403.8 185.67 403.8 186.57 402.9 508.82 80.65 510.85 80.65 187.7 403.8" style="fill: #636569"/>
              <polygon points="161.68 403.8 159.66 403.8 160.56 402.9 482.81 80.65 484.84 80.65 161.68 403.8" style="fill: #636569"/>
              <polygon points="207.2 403.8 205.17 403.8 206.07 402.9 528.33 80.65 530.36 80.65 207.2 403.8" style="fill: #636569"/>
              <polygon points="233.22 403.8 231.19 403.8 232.09 402.9 554.34 80.65 556.37 80.65 233.22 403.8" style="fill: #636569"/>
              <polygon points="285.24 403.8 283.21 403.8 284.11 402.9 606.37 80.65 608.39 80.65 285.24 403.8" style="fill: #636569"/>
              <polygon points="311.25 403.8 309.22 403.8 310.12 402.9 632.38 80.65 634.41 80.65 311.25 403.8" style="fill: #636569"/>
              <polygon points="337.26 403.8 335.23 403.8 336.13 402.9 658.39 80.65 660.42 80.65 337.26 403.8" style="fill: #636569"/>
              <polygon points="259.23 403.8 257.2 403.8 258.1 402.9 580.35 80.65 582.38 80.65 259.23 403.8" style="fill: #636569"/>
            </g>
          </g>
          <g style="clip-path: url(#clip-path-2)">
            <g>
              <polygon points="196.79 323.16 194.77 323.16 195.67 322.26 517.92 0 519.95 0 196.79 323.16" style="fill: #fc5001"/>
              <polygon points="170.78 323.16 168.75 323.16 169.66 322.26 491.91 0 493.94 0 170.78 323.16" style="fill: #fc5001"/>
              <polygon points="255.32 323.16 253.29 323.16 254.19 322.26 576.45 0 578.48 0 255.32 323.16" style="fill: #fc5001"/>
              <polygon points="281.33 323.16 279.3 323.16 280.2 322.26 602.46 0 604.49 0 281.33 323.16" style="fill: #fc5001"/>
              <polygon points="229.31 323.16 227.28 323.16 228.18 322.26 550.44 0 552.47 0 229.31 323.16" style="fill: #fc5001"/>
              <polygon points="300.84 323.16 298.81 323.16 299.71 322.26 621.97 0 624 0 300.84 323.16" style="fill: #fc5001"/>
              <polygon points="352.86 323.16 350.83 323.16 351.73 322.26 673.99 0 676.02 0 352.86 323.16" style="fill: #fc5001"/>
              <polygon points="378.87 323.16 376.84 323.16 377.74 322.26 700 0 702.03 0 378.87 323.16" style="fill: #fc5001"/>
              <polygon points="404.88 323.16 402.85 323.16 403.75 322.26 726.01 0 728.04 0 404.88 323.16" style="fill: #fc5001"/>
              <polygon points="326.85 323.16 324.82 323.16 325.72 322.26 647.98 0 650.01 0 326.85 323.16" style="fill: #fc5001"/>
              <polygon points="430.89 323.16 428.87 323.16 429.77 322.26 752.02 0 754.05 0 430.89 323.16" style="fill: #fc5001"/>
              <polygon points="216.3 323.16 214.27 323.16 215.18 322.26 537.43 0 539.46 0 216.3 323.16" style="fill: #fc5001"/>
              <polygon points="183.79 323.16 181.76 323.16 182.66 322.26 504.92 0 506.95 0 183.79 323.16" style="fill: #fc5001"/>
              <polygon points="268.33 323.16 266.3 323.16 267.2 322.26 589.45 0 591.48 0 268.33 323.16" style="fill: #fc5001"/>
              <polygon points="242.31 323.16 240.29 323.16 241.19 322.26 563.44 0 565.47 0 242.31 323.16" style="fill: #fc5001"/>
              <polygon points="313.85 323.16 311.81 323.16 312.72 322.26 634.97 0 637 0 313.85 323.16" style="fill: #fc5001"/>
              <polygon points="365.87 323.16 363.84 323.16 364.74 322.26 687 0 689.02 0 365.87 323.16" style="fill: #fc5001"/>
              <polygon points="391.88 323.16 389.85 323.16 390.75 322.26 713.01 0 715.04 0 391.88 323.16" style="fill: #fc5001"/>
              <polygon points="417.89 323.16 415.86 323.16 416.76 322.26 739.02 0 741.05 0 417.89 323.16" style="fill: #fc5001"/>
              <polygon points="339.86 323.16 337.83 323.16 338.73 322.26 660.99 0 663.01 0 339.86 323.16" style="fill: #fc5001"/>
              <polygon points="203.3 323.16 201.27 323.16 202.17 322.26 524.43 0 526.46 0 203.3 323.16" style="fill: #fc5001"/>
              <polygon points="209.8 323.16 207.77 323.16 208.67 322.26 530.93 0 532.96 0 209.8 323.16" style="fill: #fc5001"/>
              <polygon points="177.29 323.16 175.26 323.16 176.16 322.26 498.42 0 500.44 0 177.29 323.16" style="fill: #fc5001"/>
              <polygon points="261.82 323.16 259.79 323.16 260.69 322.26 582.95 0 584.98 0 261.82 323.16" style="fill: #fc5001"/>
              <polygon points="287.83 323.16 285.81 323.16 286.71 322.26 608.96 0 610.99 0 287.83 323.16" style="fill: #fc5001"/>
              <polygon points="235.81 323.16 233.78 323.16 234.68 322.26 556.94 0 558.97 0 235.81 323.16" style="fill: #fc5001"/>
              <polygon points="307.34 323.16 305.31 323.16 306.21 322.26 628.47 0 630.5 0 307.34 323.16" style="fill: #fc5001"/>
              <polygon points="359.37 323.16 357.33 323.16 358.24 322.26 680.49 0 682.52 0 359.37 323.16" style="fill: #fc5001"/>
              <polygon points="385.38 323.16 383.35 323.16 384.25 322.26 706.5 0 708.53 0 385.38 323.16" style="fill: #fc5001"/>
              <polygon points="411.39 323.16 409.36 323.16 410.26 322.26 732.51 0 734.54 0 411.39 323.16" style="fill: #fc5001"/>
              <polygon points="333.35 323.16 331.32 323.16 332.23 322.26 654.48 0 656.51 0 333.35 323.16" style="fill: #fc5001"/>
              <polygon points="437.4 323.16 435.37 323.16 436.27 322.26 758.53 0 760.56 0 437.4 323.16" style="fill: #fc5001"/>
              <polygon points="164.28 323.16 162.25 323.16 163.15 322.26 485.41 0 487.44 0 164.28 323.16" style="fill: #fc5001"/>
              <polygon points="222.81 323.16 220.78 323.16 221.68 322.26 543.93 0 545.96 0 222.81 323.16" style="fill: #fc5001"/>
              <polygon points="190.29 323.16 188.26 323.16 189.16 322.26 511.42 0 513.45 0 190.29 323.16" style="fill: #fc5001"/>
              <polygon points="274.83 323.16 272.8 323.16 273.7 322.26 595.96 0 597.99 0 274.83 323.16" style="fill: #fc5001"/>
              <polygon points="248.82 323.16 246.79 323.16 247.69 322.26 569.95 0 571.98 0 248.82 323.16" style="fill: #fc5001"/>
              <polygon points="294.34 323.16 292.31 323.16 293.21 322.26 615.47 0 617.5 0 294.34 323.16" style="fill: #fc5001"/>
              <polygon points="320.35 323.16 318.32 323.16 319.22 322.26 641.48 0 643.5 0 320.35 323.16" style="fill: #fc5001"/>
              <polygon points="372.37 323.16 370.34 323.16 371.24 322.26 693.5 0 695.53 0 372.37 323.16" style="fill: #fc5001"/>
              <polygon points="398.38 323.16 396.35 323.16 397.25 322.26 719.51 0 721.54 0 398.38 323.16" style="fill: #fc5001"/>
              <polygon points="424.39 323.16 422.36 323.16 423.26 322.26 745.52 0 747.55 0 424.39 323.16" style="fill: #fc5001"/>
              <polygon points="346.36 323.16 344.33 323.16 345.23 322.26 667.49 0 669.52 0 346.36 323.16" style="fill: #fc5001"/>
            </g>
          </g>
          <g style="clip-path: url(#clip-path-3)">
            <g>
              <polygon points="34.54 485.47 32.51 485.47 33.41 484.57 355.67 162.31 357.7 162.31 34.54 485.47" style="fill: #bebebf"/>
              <polygon points="8.53 485.47 6.5 485.47 7.4 484.57 329.66 162.31 331.69 162.31 8.53 485.47" style="fill: #bebebf"/>
              <polygon points="93.07 485.47 91.04 485.47 91.94 484.57 414.2 162.31 416.23 162.31 93.07 485.47" style="fill: #bebebf"/>
              <polygon points="119.08 485.47 117.05 485.47 117.95 484.57 440.21 162.31 442.24 162.31 119.08 485.47" style="fill: #bebebf"/>
              <polygon points="67.06 485.47 65.03 485.47 65.93 484.57 388.19 162.31 390.21 162.31 67.06 485.47" style="fill: #bebebf"/>
              <polygon points="138.59 485.47 136.56 485.47 137.46 484.57 459.72 162.31 461.75 162.31 138.59 485.47" style="fill: #bebebf"/>
              <polygon points="190.61 485.47 188.58 485.47 189.48 484.57 511.74 162.31 513.77 162.31 190.61 485.47" style="fill: #bebebf"/>
              <polygon points="216.62 485.47 214.59 485.47 215.49 484.57 537.75 162.31 539.78 162.31 216.62 485.47" style="fill: #bebebf"/>
              <polygon points="242.63 485.47 240.6 485.47 241.5 484.57 563.76 162.31 565.79 162.31 242.63 485.47" style="fill: #bebebf"/>
              <polygon points="164.6 485.47 162.57 485.47 163.47 484.57 485.73 162.31 487.76 162.31 164.6 485.47" style="fill: #bebebf"/>
              <polygon points="268.64 485.47 266.61 485.47 267.51 484.57 589.77 162.31 591.8 162.31 268.64 485.47" style="fill: #bebebf"/>
              <polygon points="54.05 485.47 52.02 485.47 52.92 484.57 375.18 162.31 377.21 162.31 54.05 485.47" style="fill: #bebebf"/>
              <polygon points="21.54 485.47 19.51 485.47 20.41 484.57 342.67 162.31 344.69 162.31 21.54 485.47" style="fill: #bebebf"/>
              <polygon points="106.07 485.47 104.04 485.47 104.94 484.57 427.2 162.31 429.23 162.31 106.07 485.47" style="fill: #bebebf"/>
              <polygon points="80.06 485.47 78.03 485.47 78.94 484.57 401.19 162.31 403.22 162.31 80.06 485.47" style="fill: #bebebf"/>
              <polygon points="151.59 485.47 149.56 485.47 150.46 484.57 472.72 162.31 474.75 162.31 151.59 485.47" style="fill: #bebebf"/>
              <polygon points="203.62 485.47 201.59 485.47 202.49 484.57 524.74 162.31 526.77 162.31 203.62 485.47" style="fill: #bebebf"/>
              <polygon points="229.63 485.47 227.6 485.47 228.5 484.57 550.75 162.31 552.78 162.31 229.63 485.47" style="fill: #bebebf"/>
              <polygon points="255.64 485.47 253.61 485.47 254.51 484.57 576.77 162.31 578.79 162.31 255.64 485.47" style="fill: #bebebf"/>
              <polygon points="177.6 485.47 175.57 485.47 176.48 484.57 498.73 162.31 500.76 162.31 177.6 485.47" style="fill: #bebebf"/>
              <polygon points="41.05 485.47 39.02 485.47 39.92 484.57 362.17 162.31 364.2 162.31 41.05 485.47" style="fill: #bebebf"/>
              <polygon points="47.55 485.47 45.52 485.47 46.42 484.57 368.68 162.31 370.71 162.31 47.55 485.47" style="fill: #bebebf"/>
              <polygon points="15.04 485.47 13.01 485.47 13.91 484.57 336.16 162.31 338.19 162.31 15.04 485.47" style="fill: #bebebf"/>
              <polygon points="99.57 485.47 97.54 485.47 98.44 484.57 420.7 162.31 422.73 162.31 99.57 485.47" style="fill: #bebebf"/>
              <polygon points="125.58 485.47 123.55 485.47 124.45 484.57 446.71 162.31 448.74 162.31 125.58 485.47" style="fill: #bebebf"/>
              <polygon points="73.56 485.47 71.53 485.47 72.43 484.57 394.69 162.31 396.72 162.31 73.56 485.47" style="fill: #bebebf"/>
              <polygon points="145.09 485.47 143.06 485.47 143.96 484.57 466.22 162.31 468.25 162.31 145.09 485.47" style="fill: #bebebf"/>
              <polygon points="197.11 485.47 195.08 485.47 195.98 484.57 518.24 162.31 520.27 162.31 197.11 485.47" style="fill: #bebebf"/>
              <polygon points="223.12 485.47 221.09 485.47 222 484.57 544.25 162.31 546.28 162.31 223.12 485.47" style="fill: #bebebf"/>
              <polygon points="249.13 485.47 247.1 485.47 248.01 484.57 570.26 162.31 572.29 162.31 249.13 485.47" style="fill: #bebebf"/>
              <polygon points="171.1 485.47 169.07 485.47 169.97 484.57 492.23 162.31 494.26 162.31 171.1 485.47" style="fill: #bebebf"/>
              <polygon points="275.15 485.47 273.12 485.47 274.02 484.57 596.27 162.31 598.3 162.31 275.15 485.47" style="fill: #bebebf"/>
              <polygon points="2.03 485.47 0 485.47 0.9 484.57 323.16 162.31 325.19 162.31 2.03 485.47" style="fill: #bebebf"/>
              <polygon points="60.55 485.47 58.52 485.47 59.43 484.57 381.68 162.31 383.71 162.31 60.55 485.47" style="fill: #bebebf"/>
              <polygon points="28.04 485.47 26.01 485.47 26.91 484.57 349.17 162.31 351.2 162.31 28.04 485.47" style="fill: #bebebf"/>
              <polygon points="112.58 485.47 110.55 485.47 111.45 484.57 433.7 162.31 435.73 162.31 112.58 485.47" style="fill: #bebebf"/>
              <polygon points="86.56 485.47 84.54 485.47 85.44 484.57 407.69 162.31 409.72 162.31 86.56 485.47" style="fill: #bebebf"/>
              <polygon points="132.09 485.47 130.06 485.47 130.96 484.57 453.21 162.31 455.24 162.31 132.09 485.47" style="fill: #bebebf"/>
              <polygon points="158.1 485.47 156.07 485.47 156.97 484.57 479.22 162.31 481.25 162.31 158.1 485.47" style="fill: #bebebf"/>
              <polygon points="210.12 485.47 208.09 485.47 208.99 484.57 531.25 162.31 533.28 162.31 210.12 485.47" style="fill: #bebebf"/>
              <polygon points="236.13 485.47 234.1 485.47 235 484.57 557.26 162.31 559.29 162.31 236.13 485.47" style="fill: #bebebf"/>
              <polygon points="262.14 485.47 260.11 485.47 261.01 484.57 583.27 162.31 585.3 162.31 262.14 485.47" style="fill: #bebebf"/>
              <polygon points="184.11 485.47 182.08 485.47 182.98 484.57 505.24 162.31 507.26 162.31 184.11 485.47" style="fill: #bebebf"/>
            </g>
          </g>
          <polygon points="255.15 368.78 253.29 368.78 519.88 102.19 521.74 102.19 255.15 368.78" style="fill: gray"/>
        </g>
        <path d="M228.85,456.52,228.73,420h.85l.24,36.53Zm-2,0h-1l.35-36.52h.85Zm5,0L231.23,420l.85,0,.71,36.52Zm-7.94,0-1,0,.83-36.51h.85Zm10.91-.05-1.06-36.51.85,0,1.17,36.5Zm-13.89,0-1,0,1.29-36.5.86,0Zm16.84-.07-1.52-36.49.85,0,1.64,36.48Zm-19.8,0-1,0,1.76-36.48.85,0Zm22.77-.1-2-36.47.85-.05,2.11,36.46ZM215,456.14l-1-.06,2.22-36.45.86.05Zm28.71-.13-2.46-36.44.85-.06,2.58,36.43ZM212,456l-1-.07,2.7-36.42.85.06Zm34.65-.16-2.94-36.4.85-.07,3.06,36.39ZM209,455.72l-1-.08,3.16-36.39.85.08Zm40.57-.19-3.4-36.36.85-.08,3.51,36.35Zm-43.54-.08-1-.09L208.74,419l.85.08Zm46.49-.21-3.86-36.32.84-.09,4,36.31Zm-49.44-.09-1-.11,4.11-36.29.84.1Zm52.4-.24-4.34-36.26.85-.11,4.46,36.25Zm-55.35-.1-1-.12,4.57-36.24.85.11Zm58.3-.27-4.8-36.21.84-.11,4.92,36.19Zm-61.26-.11-1-.14,5-36.17.85.12Zm64.21-.3L256.14,418l.84-.12,5.4,36.12ZM194.27,454l-1-.15,5.51-36.1.84.12Zm70.09-.33-5.75-36.07.84-.13,5.87,36Zm-73-.13-1-.16,6-36,.84.14Zm76-.36-6.21-36,.84-.14,6.33,36Zm-78.89-.14-1-.17,6.45-35.95.84.15Zm81.82-.38-6.68-35.9.84-.16,6.8,35.88Zm-84.75-.16-.95-.18,6.91-35.86.84.16Zm87.68-.4L266,416.29l.83-.17,7.28,35.79Zm-90.6-.17-1-.2L189,416l.84.17Zm93.51-.44-7.62-35.71.83-.18L277,451.3Zm-96.42-.17-.87-.19,7.77-35.69.83.18Zm99.33-.47-8.1-35.61.84-.19,8.2,35.59Zm-102.24-.18-.94-.22,8.31-35.57.84.2Zm105.13-.49-8.55-35.51.82-.2L282.81,450Zm-108-.2-1-.24,8.81-35.44.82.2Zm110.87-.51-8.91-35.41.76-.2,9.15,35.36Zm-113.76-.22L170,449l9.27-35.32.82.21Zm116.7-.54-9.49-35.27.82-.22,9.61,35.23Zm-119.58-.22-.94-.27L176.87,413l.81.22Zm122.45-.58-10-35.13.82-.24,10.08,35.11Zm-125.31-.23-.94-.27,10.2-35.07.82.24Zm128.17-.59-10.42-35,.8-.24,10.56,35Zm-131-.24-1-.3,10.74-34.91.76.23Zm133.88-.63-10.9-34.86.81-.26,11,34.82ZM159.5,446l-1-.32,11.2-34.76.76.24ZM299,445.34l-11.25-34.75.75-.24L300,445Zm-142.37-.29-.93-.3,11.57-34.65.81.27Zm145.21-.66-11.73-34.58.75-.26,11.95,34.51Zm-148-.29-.94-.33,12-34.48.8.28Zm150.86-.69L292.47,409l.75-.27,12.42,34.35ZM151,443.1l-.93-.33,12.51-34.32.79.29Zm156.49-.7-12.65-34.26.78-.3,12.79,34.21Zm-159.3-.33-.93-.35,13-34.14.79.3Zm162.09-.73-13.11-34.08.78-.3,13.26,34ZM145.37,441l-.92-.36,13.44-34,.78.31ZM313,440.25l-13.58-33.9.78-.31L314,439.88Zm-170.4-.34-1-.39,13.9-33.77.73.29Zm173.14-.78-14-33.72.77-.32,14.15,33.66Zm-175.92-.36-.91-.39,14.27-33.62.78.34Zm178.67-.8-14.48-33.53.77-.33,14.61,33.47Zm-181.43-.38-.9-.4,14.73-33.42.78.34Zm184.1-.79-14.83-33.37.71-.32,15.07,33.26Zm-186.83-.43-.91-.41,15.2-33.21.76.35Zm189.55-.81-15.31-33.15.77-.36,15.43,33.1Zm-192.24-.42-.93-.44,15.65-33,.72.34Zm194.94-.84-15.77-32.95.76-.36,15.89,32.89ZM129,433.85l-.89-.43,16-32.82.77.37ZM329.26,433l-16.14-32.76.7-.35,16.36,32.66Zm-203-.49-.89-.44,16.5-32.59.75.38Zm205.64-.84-16.59-32.54.75-.39,16.71,32.48Zm-208.27-.49-.92-.48,16.94-32.36.71.37Zm210.93-.89L317.52,398l.74-.4,17.18,32.23ZM121,429.79l-.87-.46,17.31-32.16.75.4Zm216.18-.88-17.43-32.09.74-.41,17.54,32Zm-218.78-.53-.9-.5L135.25,396l.7.38Zm221.38-.91-17.86-31.85.72-.41,18,31.78Zm-224-.55-.85-.49,18.13-31.7.74.42Zm226.56-.9L324.1,394.37l.67-.39,18.46,31.51Zm-229.17-.6-.85-.51,18.61-31.42.72.42Zm231.71-.89-18.6-31.43.67-.4L345.76,424Zm-234.24-.62-.86-.51,19-31.21.71.43ZM347.44,423l-19.07-31.14.67-.42,19.27,31Zm-239.35-.61-.86-.53,19.39-30.95.69.43Zm241.89-1-19.52-30.87.72-.45,19.63,30.8Zm-244.43-.63-.86-.55,19.85-30.66.67.44Zm246.91-1-19.88-30.64.71-.46,20,30.57Zm-249.4-.65-.86-.57,20.24-30.4.66.44Zm251.86-1-20.23-30.4.64-.44,20.45,30.26Zm-254.36-.69-.82-.56,20.61-30.16.69.47Zm256.82-1-20.63-30.13.66-.46,20.8,30Zm-259.26-.7-.81-.56,21-29.92.7.49Zm261.7-1-21-29.85.67-.48,21.17,29.76ZM95.69,414.1l-.83-.6,21.4-29.59.65.46Zm266.54-1L340.82,383.5l.65-.47,21.59,29.46Zm-269-.75-.8-.59,21.77-29.33.67.5Zm271.36-1L342.84,382l.64-.48,22,29.18Zm-273.74-.77-.81-.61,22.17-29,.65.49Zm276.12-1-22.19-29,.66-.5,22.32,28.9Zm-278.48-.77-.83-.65,22.6-28.69.6.47Zm280.82-1.05L346.79,379l.65-.52,22.68,28.62Zm-283.15-.78-.79-.64,22.88-28.46.64.51Zm285.47-1.07-22.91-28.44.6-.49,23.12,28.28Zm-287.79-.81-.81-.66,23.31-28.11.61.5ZM374,404l-23.27-28.14.6-.51,23.47,28Zm-292.37-.82-.78-.66,23.63-27.84.62.52ZM376.27,402l-23.72-27.78.64-.55L377,401.4Zm-296.95-.8-.79-.68,24-27.52.6.51ZM378.61,400l-24.18-27.37.65-.58,24.17,27.39Zm-301.53-.73-.75-.68,24.31-27.25.61.54Zm303.71-1.21L356.3,371l.64-.57,24.53,27.06Zm-305.93-.79-.72-.65,24.63-27,.62.57ZM383,396.11l-24.82-26.8.64-.59,24.87,26.74Zm-310.28-.83-.74-.69L97,368l.59.55Zm312.46-1.21L360,367.6l.62-.59,25.23,26.41Zm-314.63-.84-.72-.68,25.35-26.29.6.57Zm316.73-1.18-25.44-26.2.6-.58L388,391.36Zm-318.88-.89-.66-.66,25.62-26,.63.63Zm321-1.19-25.77-25.88.57-.57,25.92,25.73Zm-323.1-.9-.71-.72L91.6,362.76l.57.57Zm325.2-1.22-26.12-25.53.58-.59,26.23,25.41Zm-327.29-.92-.66-.68,26.32-25.32.6.62Zm329.38-1.24-26.49-25.14.61-.65L394.19,385Zm-331.44-.91-.65-.7,26.66-25,.59.63Zm333.44-1.22-26.74-24.87.56-.61,26.86,24.75ZM60.1,382.62l-.67-.73,27-24.6.56.61Zm337.5-1.29-27.14-24.45.58-.64,27.2,24.38Zm-339.5-.92-.66-.74,27.33-24.23.55.62Zm341.46-1.28L372.15,355l.54-.63,27.52,24Zm-343.43-1-.63-.72,27.61-23.91.57.66Zm345.39-1.29-27.74-23.76.56-.66,27.8,23.69Zm-347.31-.94-.64-.75,27.91-23.55.55.64Zm349.25-1.36-28.08-23.34.57-.69,28.11,23.31Zm-351.17-.93-.61-.73,28.2-23.21.55.67Zm353-1.34-28.35-23,.56-.7,28.38,23Zm-354.93-.95-.6-.76,28.51-22.82.53.66ZM407.17,370,378.59,347.3l.5-.64,28.71,22.57ZM48.56,369l-.59-.75,28.8-22.46.53.68ZM409,367.66l-28.92-22.31.5-.66,29,22.18Zm-362.29-1-.56-.75,29.06-22.12.53.71Zm364.09-1.39-29.2-21.93.49-.67,29.31,21.8ZM45,364.29l-.57-.77,29.38-21.68.52.69Zm367.66-1.4-29.5-21.54.51-.7,29.55,21.47Zm-369.42-1-.56-.78L72.3,339.83l.5.69Zm371.16-1.42-29.77-21.16.48-.67,29.86,21Zm-372.87-1-.58-.84,30-20.86.46.66ZM416.08,358,386,337.3l.5-.73,30.11,20.67Zm-376.29-.95-.56-.82,30.22-20.52.46.69Zm378-1.49-30.31-20.37.48-.72,30.37,20.29Zm-379.63-1-.51-.78,30.45-20.16.49.73Zm381.26-1.46-30.55-20,.45-.67,30.66,19.84Zm-382.87-1-.54-.84L66.7,331.57l.45.7ZM421,350.6,390.17,331l.46-.72,30.89,19.48Zm-386.1-1-.54-.86,31-19.28.42.69Zm387.68-1.55L391.5,328.9l.45-.73,31.14,19.08Zm-389.24-1-.53-.87,31.27-18.87.42.69Zm390.81-1.6-31.36-18.72.45-.76,31.39,18.68Zm-392.34-.95-.52-.87L62.8,325.22l.41.69Zm393.85-1.61-31.6-18.31.45-.77,31.62,18.27ZM30.31,342l-.5-.88,31.75-18.05.39.7Zm396.83-1.64-31.83-17.9.44-.77,31.85,17.86Zm-398.29-.94-.5-.89,32-17.63.39.7Zm399.74-1.66-32.06-17.49.43-.78L429,336.93Zm-401.17-.94-.47-.87,32.18-17.26.39.73ZM430,335.15,397.73,318l.39-.74,32.34,17Zm-404-1-.43-.83L58,316.45l.41.78Zm405.35-1.63-32.45-16.76.37-.72,32.55,16.57Zm-406.71-1-.43-.86,32.62-16.43.38.77Zm408.07-1.69L400,313.57l.37-.75L433.16,329Zm-409.38-.94-.45-.91,32.85-16,.36.73ZM434,327.18l-32.9-15.87.36-.75,33,15.72Zm-412-.94-.43-.91L54.67,309.8l.34.72Zm413.25-1.73L402.22,309l.33-.71,33.18,15.25Zm-414.51-1-.41-.89,33.25-15.1.35.75Zm415.78-1.78-33.32-15,.34-.77L437,320.84Zm-417-.89-.42-1,33.47-14.61.31.71Zm418.18-1.81-33.49-14.59.32-.74,33.57,14.39Zm-419.38-.93-.38-.91L51.62,303l.33.76Zm420.56-1.84-33.69-14.1.32-.77,33.75,13.95Zm-421.7-.89-.38-.92,33.81-13.79.32.76Zm422.83-1.87-33.87-13.66.3-.76,33.95,13.47Zm-423.95-.89-.37-.92,34-13.36.31.78Zm425.05-1.89-34.05-13.22.3-.75,34.11,13ZM15,309.87l-.35-.93L48.83,296l.3.78Zm427.21-1.94L408,295.2l.29-.79L442.57,307ZM14,307.08l-.35-1L48,293.7l.28.76Zm429.26-1.93-34.37-12.33.27-.77,34.44,12.14ZM13,304.26l-.32-.91,34.49-12,.28.81Zm431.28-1.95-34.55-11.84.27-.79,34.6,11.69ZM12,301.47l-.32-1L46.33,289l.26.76Zm433.19-2-34.7-11.39.26-.8,34.74,11.25Zm-434.13-.84-.31-1,34.8-11.08.25.77Zm435-2L411.25,285.7l.25-.81,34.89,10.8ZM10.16,295.8l-.29-1,34.94-10.61.24.78Zm436.81-2-35-10.51.23-.77,35,10.31ZM9.3,292.93,9,292l35.07-10.2.24.82Zm438.5-2-35.11-10,.22-.78L448.08,290ZM8.47,290.07l-.26-.93,35.2-9.74.23.82Zm440.12-2-35.23-9.63.21-.75,35.29,9.38ZM7.69,287.2l-.25-.95L42.77,277l.21.82Zm441.67-2L414,276.08l.2-.79,35.42,8.91ZM7,284.34l-.25-1,35.45-8.78.2.79Zm443.13-2-35.48-8.63.19-.79,35.53,8.44ZM6.23,281.45l-.23-1,35.57-8.3.18.79Zm444.54-2.05-35.6-8.17.18-.79,35.64,8ZM5.56,278.55l-.22-1L41,269.71l.18.81Zm445.85-2.06-35.7-7.7.17-.79,35.74,7.5ZM4.93,275.64l-.21-1,35.77-7.39.17.81ZM452,273.57l-35.8-7.22.16-.8,35.84,7ZM4.33,272.73l-.19-1L40,264.82l.16.8Zm448.26-2.09L416.7,263.9l.15-.81,35.92,6.57ZM3.77,269.8l-.17-1,35.94-6.45.15.8Zm449.35-2.09-36-6.27.14-.81,36,6.1ZM3.25,266.87l-.16-1,36-6,.13.81Zm450.36-2.09L417.56,259l.12-.81,36.09,5.62ZM2.77,263.94l-.15-1,36.1-5.52.13.82Zm451.3-2.1-36.13-5.33.11-.82,36.16,5.16ZM2.33,261l-.14-1,36.17-5,.12.81Zm452.15-2.1L418.29,254l.1-.82,36.22,4.69ZM1.92,258l-.12-1L38,252.48l.1.84Zm452.93-2-36.25-4.46.1-.79L455,255ZM1.56,255.07l-.11-1L37.74,250l.1.84ZM455.2,253l-36.31-3.92.08-.82L455.3,252Zm-454-.88-.1-1,36.34-3.63.09.85ZM455.5,250l-36.36-3.46.07-.82L455.59,249ZM.94,249.15l-.08-1L37.24,245l.08.85Zm454.82-2.08-36.4-3,.06-.82,36.42,2.82ZM.69,246.19l-.07-1L37,242.52l.07.86ZM456,244.11l-36.44-2.52.06-.82,36.45,2.34ZM.48,243.23l-.06-1L36.88,240l0,.85Zm455.68-2.09-36.46-2,0-.82,36.48,1.87ZM.31,240.26l0-1,36.48-1.76,0,.85Zm456-2.09-36.49-1.58,0-.82,36.49,1.4ZM.18,237.29l0-1,36.5-1.23,0,.82Zm456.24-2.09-36.51-1.11,0-.82,36.51.93ZM.08,234.33l0-1,36.51-.82,0,.85Zm456.41-2.1L420,231.59v-.83l36.52.47ZM0,231.36v-1L36.53,230v.85Zm456.5-2.1L420,229.08V228h36.52v1.26Zm-420-.87H0v-1l36.52.14Zm383.47-2v-.82L456.5,225v1Zm-383.45-.46L0,225.42v-1l36.52.58Zm383.41-2,0-.82,36.51-1,0,1Zm-383.37-.48L.07,222.45l0-1,36.51,1.05Zm383.3-2,0-.82,36.49-1.47,0,1Zm-383.22-.48L.17,219.48l0-1L36.69,220Zm383.11-2,0-.82,36.47-1.93.05,1Zm-383-.48L.3,216.51l0-1,36.47,2Zm382.87-2-.05-.83,36.44-2.4.06,1Zm-382.73-.49L.47,213.54l.06-1L37,215Zm382.56-2-.06-.82,36.4-2.88.08,1Zm-382.38-.48L.68,210.57l.07-1,36.41,2.93Zm382.18-2-.08-.81,36.37-3.35.09,1Zm-382-.48L.92,207.61l.09-1,36.36,3.41Zm381.73-2-.08-.81,36.32-3.82.11,1ZM37.54,208.4,1.21,204.65l.1-1,36.31,3.88Zm381.23-2-.1-.79,36.27-4.28.12,1Zm-381-.45L1.53,201.7l.11-1,36.27,4.34Zm380.66-2-.1-.81,36.21-4.75.13,1Zm-380.36-.48L1.89,198.75l.13-1,36.2,4.87Zm380-2-.12-.82,36.15-5.22.14,1ZM38.45,201,2.29,195.8l.15-1,36.13,5.33Zm379.33-2-.13-.81,36.08-5.69.15,1Zm-379-.48L2.73,192.86l.16-1L39,197.67Zm378.56-2-.13-.82,36-6.16.16,1ZM39.22,196l-36-6.1.17-1,36,6.27ZM417,194l-.15-.81,35.91-6.63.18,1Zm-377.31-.48L3.72,187l.19-1,35.89,6.73Zm376.85-2-.16-.8,35.83-7.1.19,1ZM40.12,191.1l-35.84-7,.19-1,35.81,7.21Zm375.89-2-.17-.8,35.73-7.57.2,1Zm-375.4-.47-35.74-7.5.21-1,35.7,7.68Zm374.87-2-.18-.8,35.63-8,.22,1Zm-374.34-.47-35.64-8,.22-1,35.6,8.15Zm373.79-2-.19-.8,35.52-8.5.23,1ZM41.7,183.78,6.17,175.34l.23-1L41.9,183Zm372.64-2-.2-.8,35.41-9,.24,1Zm-372-.46L6.88,172.44l.25-1,35.37,9.09Zm371.42-2-.21-.76,35.28-9.44.27,1Zm-370.8-.43-35.3-9.38.26-1,35.25,9.56ZM413.07,177l-.22-.79L448,166.3l.27,1Zm-369.49-.46L8.41,166.68l.26-.94,35.13,10Zm368.81-1.94-.23-.78,35-10.38.28,1Zm-368.13-.46-35-10.31.28-.94,35,10.44Zm367.42-1.93-.25-.81,34.89-10.79.29.94ZM45,171.72,10.08,161l.3-1,34.85,10.92Zm366-1.9-.26-.8,34.74-11.26.3.94Zm-365.2-.49L11,158.13l.31-1L46,168.56Zm364.41-1.9-.26-.78,34.59-11.72.32.95ZM46.53,167,11.92,155.28l.32-.95,34.55,11.85Zm362.82-1.89-.27-.77,34.42-12.19.34.95Zm-362-.48L12.9,152.45l.33-.93L47.62,163.8Zm361.17-1.86-.28-.79,34.27-12.62.34.93Zm-360.32-.51L13.9,149.66l.35-.95,34.23,12.73Zm359.45-1.85-.29-.77,34.1-13.07.36.94Zm-358.57-.49L15,146.85l.36-.94,34.06,13.2Zm357.67-1.83-.3-.76,33.92-13.54.37.94ZM50,157.55,16,144.06l.36-.92,33.89,13.62Zm355.84-1.81-.32-.77,33.74-14,.38.91Zm-354.9-.53L17.15,141.3l.39-.93,33.7,14.08Zm353.94-1.78-.32-.75,33.55-14.42.39.92Zm-353-.52L18.31,138.54l.41-.94,33.49,14.56Zm352-1.77-.33-.75,33.38-14.83.4.91Zm-351-.54L19.5,135.81l.41-.92,33.32,15Zm350-1.72-.33-.73,33.15-15.32.43.93Zm-348.93-.55L20.74,133.08l.41-.89,33.13,15.37Zm347.88-1.71-.35-.74,33-15.72.43.91ZM55,146.05,22,130.38l.44-.93,32.89,15.89Zm345.75-1.66-.37-.76,32.77-16.12.43.87Zm-344.66-.58L23.3,127.68l.44-.89,32.7,16.27Zm343.57-1.63-.38-.76,32.54-16.59.44.87Zm-342.45-.62L24.63,125l.46-.9,32.48,16.71Zm341.3-1.64-.37-.71,32.31-17,.47.9Zm-340.15-.59L26,122.37l.47-.89L58.73,138.6Zm339-1.59-.4-.74L429,119.6l.47.85Zm-337.82-.62L27.4,119.74l.48-.88,32,17.54Zm336.62-1.56-.41-.74L427.61,117l.48.85Zm-335.41-.64-31.9-17.79.48-.85,31.84,17.9Zm334.19-1.54-.42-.73,31.65-18.23.48.84Zm-333-.64L30.3,114.54l.49-.85L62.39,132Zm331.7-1.51-.43-.73,31.41-18.64.5.84Zm-330.44-.65L31.81,112l.51-.86,31.34,18.75Zm329.17-1.49-.44-.73,31.16-19,.5.83Zm-327.88-.66-31.18-19,.54-.87L65,127.74ZM391.1,127l-.46-.73,30.91-19.46.51.82Zm-325.26-.67L34.92,106.87l.54-.85,30.82,19.6Zm323.92-1.46-.45-.69L420,104.28l.53.83ZM67.19,124.2,36.52,104.36l.54-.83,30.58,20Zm321.2-1.44-.45-.69,30.38-20.27.55.83Zm-319.84-.64L38.16,101.86l.53-.78,30.36,20.3ZM387,120.7l-.49-.72,30.14-20.62.53.79ZM70,120,39.83,99.4l.55-.8,30.06,20.74Zm315.65-1.4-.49-.69,29.85-21,.56.8ZM71.39,118,41.52,97l.57-.8,29.79,21.13Zm312.75-1.4-.48-.66L413.24,94.5l.58.81ZM72.83,116,43.26,94.52l.56-.77,29.53,21.5Zm309.88-1.35-.53-.71,29.31-21.79.55.75Zm-308.39-.68L45,92.13l.6-.8,29.19,21.94Zm306.85-1.37-.49-.64,29-22.19.61.8Zm-305.35-.62-29-22.2L47.4,89l28.95,22.26Zm303.84-1.35-.51-.65,28.72-22.56.62.79ZM77.36,110,48.64,87.4l.6-.77,28.64,22.66Zm300.75-1.33-.51-.63,28.41-23,.64.79ZM78.92,108,50.49,85.07l.63-.77,28.32,23Zm297.6-1.33-.5-.61,28.12-23.31.66.8Zm-296-.62L52.36,82.78,53,82l28,23.44Zm294.43-1.28-.53-.63,27.82-23.66.65.76Zm-292.83-.62L54.29,80.49l.64-.76,27.72,23.78Zm291.22-1.27-.56-.64,27.53-24,.64.73Zm-289.6-.62-27.5-24,.65-.73,27.41,24.13Zm288-1.26-.57-.64L398.34,76l.64.72Zm-286.29-.62L58.2,76l.65-.72L86,99.75ZM370,99.13l-.56-.61,26.89-24.71.67.73ZM87.08,98.52,60.19,73.8l.68-.73L87.64,97.91Zm281.25-1.2-.6-.63,26.58-25,.65.69ZM88.79,96.69,62.21,71.63l.7-.73L89.35,96.1Zm277.79-1.22-.57-.58,26.24-25.41.7.73ZM90.51,94.89,64.28,69.48l.69-.72L91.09,94.29ZM364.86,93.7l-.6-.6,25.91-25.74.69.7ZM92.27,93.1,66.35,67.36l.72-.72L92.84,92.52Zm270.8-1.19-.58-.56,25.56-26.09.73.71ZM94,91.34,68.47,65.26l.7-.68L94.64,90.75Zm267.26-1.16-.6-.58,25.23-26.4.72.69ZM95.83,89.6,70.6,63.19l.72-.68L96.43,89Zm263.64-1.15-.59-.56,24.87-26.74.74.69ZM97.64,87.89,72.77,61.15l.72-.67L98.26,87.32Zm260-1.13-.63-.58,24.56-27,.72.65ZM99.49,86.2,75,59.14l.73-.67L100.1,85.64ZM355.8,85.09l-.64-.57,24.2-27.36.72.65Zm-254.45-.56L77.16,57.16l.77-.67L102,84Zm252.58-1.09-.66-.57,23.85-27.66.72.63Zm-250.7-.55L79.41,55.2l.76-.64,23.69,27.79ZM352,81.78l-.6-.51,23.44-28,.79.66Zm-246.85-.51-23.47-28,.77-.64,23.33,28.1Zm244.93-1.1-.61-.5,23.08-28.3.8.66Zm-243-.5L84,51.39l.78-.63,23,28.39Zm241.08-1-.65-.52,22.73-28.59.78.62ZM109,78.11,86.28,49.52l.75-.59,22.65,28.64Zm237.2-1-.67-.52L367.9,47.68l.76.6ZM111,76.57,88.61,47.69l.79-.61,22.22,29Zm233.22-1-.64-.49,22-29.18.81.62Zm-231.25-.47L91,45.88l.78-.58,21.86,29.25Zm229.28-1-.68-.51,21.6-29.45.78.58ZM115,73.56,93.35,44.12l.8-.58,21.48,29.53Zm225.21-1-.66-.47,21.19-29.74.83.59ZM117,72.1,95.76,42.37l.78-.55L117.68,71.6Zm221.2-1-.72-.49,20.85-30,.78.55ZM119,70.66l-20.84-30L99,40.1,119.7,70.19Zm217.08-1-.7-.48L355.83,39l.81.55Zm-215-.45L100.63,39l.81-.55,20.34,30.34Zm212.92-1-.68-.45,20-30.55.85.56Zm-210.84-.42L103.1,37.34l.83-.54,19.92,30.61Zm208.78-.93-.74-.47,19.66-30.78.8.51Zm-206.7-.42-19.63-30.8.79-.5L126,66Zm204.58-.93-.74-.46,19.26-31,.81.51Zm-202.47-.4-19.23-31,.81-.5,19.16,31.09Zm200.34-.91-.74-.45,18.84-31.29.83.5Zm-198.21-.39-18.83-31.3.82-.48,18.75,31.33ZM325.55,63l-.75-.44L343.22,31l.83.49Zm-193.93-.38L113.2,31.08l.82-.48,18.35,31.58Zm191.76-.88-.76-.43,18-31.77.83.47Zm-189.6-.37-18-31.77.83-.47L134.54,61Zm187.43-.86-.78-.43,17.61-32,.82.45ZM136,60.16l-17.59-32,.84-.45,17.52,32ZM319,59.31l-.78-.42,17.19-32.22.83.44ZM138.15,59,121,26.74l.84-.45,17.1,32.27Zm178.59-.86-.71-.37,16.73-32.47.91.48Zm-176.38-.3L123.58,25.37l.88-.46L141.1,57.43ZM314.53,57l-.74-.37L330.1,23.93l.9.45Zm-171.95-.29L126.23,24l.89-.44,16.19,32.73Zm169.71-.82-.75-.36,15.89-32.89.89.44Zm-167.48-.28L128.9,22.71l.89-.43,15.76,32.94ZM310,54.78l-.74-.35,15.43-33.1.91.43Zm-163-.27L131.57,21.43l.91-.42,15.31,33.16Zm160.69-.8-.74-.33,15-33.3.93.43Zm-158.41-.24L134.25,20.2l.92-.41,14.9,33.34Zm156.14-.77-.75-.33,14.56-33.5.92.41Zm-153.88-.24L137,19l.91-.39,14.47,33.53Zm151.57-.76-.76-.32L316.55,17.7l.92.4Zm-149.27-.23-14.2-33.64.93-.39,14,33.72Zm147-.74-.75-.3,13.67-33.87.94.38Zm-144.68-.2L142.44,16.69l.91-.37L157,50.21Zm142.37-.73-.79-.3,13.26-34,.92.37Zm-140-.2-13.31-34,.94-.36L159.27,49.3Zm137.69-.7-.77-.29L308.21,14.4l.94.35Zm-135.37-.19L148,14.52l.94-.35,12.67,34.25Zm133-.69-.77-.27,12.32-34.39,1,.35Zm-130.68-.17L150.79,13.49l.92-.33L164,47.57Zm128.33-.67-.8-.27,11.9-34.53.93.32Zm-126-.17L153.58,12.5l.95-.32L166.3,46.75Zm123.56-.64-.78-.26,11.45-34.68.95.31Zm-121.2-.16L156.4,11.55l1-.32L168.66,46Zm118.83-.62-.79-.25,11-34.83,1,.3Zm-116.46-.15-11-34.81,1-.31L171,45.2Zm114-.61-.76-.22,10.5-35,1,.31Zm-111.66-.12-10.56-35,.94-.28,10.44,35Zm109.29-.58-.78-.23,10-35.12,1,.29ZM175,44,164.94,8.9l.95-.27,10,35.14Zm104.5-.55-.82-.23L288.33,8l.94.26Zm-102.08-.13L167.79,8.1l1-.26,9.49,35.26Zm99.67-.52-.82-.21,9.14-35.36.95.24Zm-97.26-.12-9.2-35.35,1-.25,9,35.39Zm94.84-.5-.82-.2L282.56,6.5l.95.24Zm-92.42-.12L173.56,6.6l1-.24,8.56,35.51Zm90-.46-.83-.2,8.21-35.59.94.22Zm-87.57-.12L176.45,5.91l1-.23L185.5,41.3ZM269.85,41l-.83-.18,7.74-35.69.95.2Zm-82.69-.11L179.35,5.25l1-.21L188,40.76Zm80.25-.41-.83-.17,7.26-35.79,1,.19Zm-77.81-.1L182.27,4.64l1-.2,7.16,35.81ZM265,40l-.84-.16L270.92,4l1,.19Zm-72.91-.1L185.19,4.06l1-.18,6.69,35.9Zm70.45-.36-.83-.15,6.32-36,1,.17Zm-68-.09-6.4-36,1-.17,6.22,36ZM260,39.14,259.2,39l5.86-36,1,.16ZM197,39.06,191.05,3l1-.16,5.74,36.07Zm60.6-.31-.84-.13L262.12,2.5l1,.14Zm-58.13-.08L194,2.56l1-.15,5.28,36.14Zm55.66-.29-.85-.11,4.93-36.19,1,.13Zm-53.18-.07-5-36.18,1-.13,4.8,36.2Zm50.7-.26-.84-.1L256.23,1.7l1,.12ZM204.4,38,199.88,1.75l1-.12,4.33,36.26Zm45.74-.24-.85-.09,4-36.3,1,.1Zm-43.26,0-4-36.3,1-.11,3.87,36.32Zm40.77-.21-.82-.08,3.46-36.36,1,.1Zm-38.28-.05L205.79,1.09l1-.09,3.4,36.36Zm35.79-.19-.82-.07,3-36.39,1,.08Zm-33.3,0L208.75.82l1-.08,2.93,36.4Zm30.8-.16-.82-.06L244.36.56l1,.07Zm-28.31,0L211.71.59l1-.07L215.17,37Zm25.82-.14-.82,0L241.4.37l1,.06Zm-23.35,0L214.71.4l1-.06,2,36.47Zm20.85-.11-.82,0L238.43.22l1,.05Zm-18.35,0L217.68.24l1,0,1.52,36.49Zm15.85-.09-.82,0L235.46.11l1,0Zm-13.35,0L220.64.12l1,0,1.06,36.51Zm10.85-.06-.83,0L232.49,0l1,0Zm-8.36,0L223.6.05l1,0,.59,36.52Zm5.86,0h-.83L229.52,0h1Zm-3.33,0L226.54,0h1l.11,36.52Z" transform="translate(160.62 7.23)" style="fill: #fc5001"/>
        <path d="M228.26,442.83A214.57,214.57,0,0,1,76.54,76.54,214.56,214.56,0,1,1,380,380,213.14,213.14,0,0,1,228.26,442.83Zm0-420C115,22.83,22.83,115,22.83,228.26S115,433.69,228.26,433.69,433.7,341.54,433.7,228.26,341.54,22.83,228.26,22.83Z" transform="translate(160.62 7.23)" style="fill: #fc5001"/>
      </g>
    </g>
  </g>
</svg>
