<svg xmlns="http://www.w3.org/2000/svg" width="454.83" height="451.25" viewBox="0 0 454.83 451.25">
  <g id="Layer_2" data-name="Layer 2">
    <g id="Layer_1-2" data-name="Layer 1">
      <g>
        <g>
          <polygon points="24.93 345.58 24.93 341.8 25.22 341.52 59.3 307.44 63.07 307.44 24.93 345.58" style="fill: #bebebf"/>
          <polygon points="24.93 393.86 24.93 390.08 25.22 389.8 107.58 307.44 111.35 307.44 24.93 393.86" style="fill: #bebebf"/>
          <polygon points="32.31 422.69 28.54 422.69 140.18 311.06 140.18 314.82 139.9 315.1 32.31 422.69" style="fill: #bebebf"/>
          <polygon points="128.87 422.69 125.11 422.69 140.18 407.62 140.18 411.38 128.87 422.69" style="fill: #bebebf"/>
          <polygon points="80.59 422.69 76.82 422.69 140.18 359.33 140.18 363.1 139.9 363.38 80.59 422.69" style="fill: #bebebf"/>
          <polygon points="24.93 369.71 24.93 365.94 25.22 365.66 83.44 307.44 87.21 307.44 24.93 369.71" style="fill: #bebebf"/>
          <polygon points="24.93 321.44 24.93 317.66 35.16 307.44 38.93 307.44 24.93 321.44" style="fill: #bebebf"/>
          <polygon points="56.45 422.69 52.68 422.69 140.18 335.19 140.18 338.96 139.9 339.24 56.45 422.69" style="fill: #bebebf"/>
          <polygon points="104.73 422.69 100.97 422.69 140.18 383.48 140.18 387.25 139.9 387.53 104.73 422.69" style="fill: #bebebf"/>
          <polygon points="24.93 357.64 24.93 353.87 25.22 353.59 71.37 307.44 75.14 307.44 24.93 357.64" style="fill: #bebebf"/>
          <polygon points="24.93 405.93 24.93 402.15 25.22 401.87 119.65 307.44 123.42 307.44 24.93 405.93" style="fill: #bebebf"/>
          <polygon points="44.38 422.69 40.61 422.69 140.18 323.13 140.18 326.89 139.9 327.17 44.38 422.69" style="fill: #bebebf"/>
          <polygon points="92.66 422.69 88.9 422.69 140.18 371.4 140.18 375.18 139.9 375.46 92.66 422.69" style="fill: #bebebf"/>
          <polygon points="24.93 381.79 24.93 378.01 25.22 377.73 95.51 307.44 99.28 307.44 24.93 381.79" style="fill: #bebebf"/>
          <polygon points="24.93 333.5 24.93 329.73 25.22 329.45 47.23 307.44 51 307.44 24.93 333.5" style="fill: #bebebf"/>
          <polygon points="24.93 418 24.93 414.22 25.22 413.94 131.72 307.44 135.49 307.44 24.93 418" style="fill: #bebebf"/>
          <polygon points="68.52 422.69 64.75 422.69 140.18 347.26 140.18 351.03 139.9 351.31 68.52 422.69" style="fill: #bebebf"/>
          <polygon points="116.8 422.69 113.04 422.69 140.18 395.55 140.18 399.31 139.9 399.59 116.8 422.69" style="fill: #bebebf"/>
        </g>
        <g>
          <path d="M329.68,89l-.52-1.46c-.1-.27-.18-.54-.26-.81l-.16-.56.41-.4L400.91,14l.55.16c.27.07.54.16.82.26l1.45.52Z" style="fill: #fc5001"/>
          <path d="M344.1,110.79l-.69-.64-.42-.41a1.42,1.42,0,0,1-.2-.22l-.51-.68,81.3-81.31.68.52a1.37,1.37,0,0,1,.23.2c.15.15.28.28.4.42l.64.69Z" style="fill: #fc5001"/>
          <path d="M377,126.21l-.46,0c-.33,0-.64-.07-.95-.12l-1.87-.32,66.78-66.78.32,1.86c.05.32.1.64.13,1l0,.46Z" style="fill: #fc5001"/>
          <path d="M326.05,68.48l.14-2.57c0-.39.05-.74.08-1.09l0-.36.25-.25L379.2,11.55l.36,0,1.09-.07,2.56-.14-1.8,1.81Z" style="fill: #fc5001"/>
          <path d="M358.31,120.71l-.63-.31c-.24-.12-.48-.24-.7-.37l-1.12-.64,78.28-78.27.63,1.11c.14.24.27.49.38.73l.29.62-.48.48Z" style="fill: #fc5001"/>
          <path d="M398.8,124.75l40.69-40.69-1.35,4c-.18.55-.38,1.09-.6,1.63l-.07.18-.14.14-32.75,32.74-.18.08c-.54.22-1.07.41-1.62.6Z" style="fill: #fc5001"/>
          <path d="M327.86,54.6l1.2-3.81c.16-.53.35-1.06.55-1.58l.07-.19,34.08-34.08.2-.08c.51-.19,1-.38,1.57-.54l3.81-1.2Z" style="fill: #fc5001"/>
          <path d="M333.52,97.22l-.64-1.11c-.13-.23-.25-.47-.36-.7l-.32-.63.5-.5,76.82-76.82.63.31.7.37,1.11.64Z" style="fill: #fc5001"/>
          <path d="M350.71,116.24l-.86-.63-.41-.31-.87-.68,80.79-80.79.68.86c.11.14.21.27.3.41L431,36Z" style="fill: #fc5001"/>
          <path d="M384.9,126.57l56.42-56.42-.08,2.47c0,.38,0,.77-.08,1.16l0,.34-52.26,52.26-.34,0a11.32,11.32,0,0,1-1.16.09Z" style="fill: #fc5001"/>
          <polygon points="327.02 79.58 326.57 76.26 391 11.82 394.32 12.28 327.02 79.58" style="fill: #fc5001"/>
          <polygon points="338.31 104.5 336.71 102.33 417.07 21.97 419.24 23.57 338.31 104.5" style="fill: #fc5001"/>
          <path d="M367,124.12l-.55-.16c-.27-.07-.54-.16-.82-.26l-1.45-.52L437.92,49.4l.53,1.46c.09.27.18.54.26.81l.15.56-.4.4Z" style="fill: #fc5001"/>
        </g>
        <g>
          <path d="M177.56,180.79l2.09-4.76c.32-.75.63-1.39.94-2l.17-.23L195,159.66c.59-.32,1.23-.62,2-.95l4.75-2.07Z" style="fill: #3d4344"/>
          <polygon points="176.78 229.84 176.78 226.07 247.01 155.85 250.78 155.85 176.78 229.84" style="fill: #3d4344"/>
          <path d="M184.29,258.54l-.68-.86-.46-.63-.45-.67.57-.57,94-94.05.67.46c.21.14.41.3.62.46l.86.68Z" style="fill: #3d4344"/>
          <path d="M264.91,270.77l3-3L291.61,244l-1.29,3.91c-.17.53-.36,1.07-.57,1.6l-.07.19-19,19-.19.07c-.5.2-1,.38-1.53.56Z" style="fill: #3d4344"/>
          <polygon points="220.03 271.1 216.26 271.1 292.03 195.32 292.03 199.09 220.03 271.1" style="fill: #3d4344"/>
          <polygon points="176.78 205.71 176.78 201.94 222.87 155.85 226.64 155.85 176.78 205.71" style="fill: #3d4344"/>
          <path d="M198.21,268.78l-.62-.26-.72-.33-1.25-.59,92.91-92.91.6,1.25q.18.38.33.75l.23.6Z" style="fill: #3d4344"/>
          <polygon points="244.17 271.1 240.41 271.1 292.03 219.47 292.03 223.24 244.17 271.1" style="fill: #3d4344"/>
          <polygon points="176.78 193.63 176.78 189.86 210.8 155.85 214.57 155.85 176.78 193.63" style="fill: #3d4344"/>
          <path d="M177.06,241.65l-.19-2.08c0-.34-.06-.67-.07-1v-.42l.3-.3,82-82h.42l1,0,2.17.14Z" style="fill: #3d4344"/>
          <path d="M190.44,264.47l-.68-.54c-.19-.14-.39-.3-.57-.46l-.83-.68,95.36-95.36.69.82.46.58.53.68-.61.61Z" style="fill: #3d4344"/>
          <polygon points="232.1 271.1 228.34 271.1 292.03 207.4 292.03 211.17 232.1 271.1" style="fill: #3d4344"/>
          <polygon points="176.78 217.78 176.78 214 234.94 155.85 238.71 155.85 176.78 217.78" style="fill: #3d4344"/>
          <polygon points="179.65 251.12 178.62 248.38 179.07 247.93 269.31 157.69 272.05 158.72 179.65 251.12" style="fill: #3d4344"/>
          <path d="M208.06,271l-.44,0c-.33,0-.65-.06-1-.1l-2-.26,86.86-86.86.26,2c.05.32.08.64.1,1l0,.44-.31.31Z" style="fill: #3d4344"/>
          <polygon points="256.24 271.1 252.48 271.1 292.03 231.53 292.03 235.31 256.24 271.1" style="fill: #3d4344"/>
        </g>
        <polygon points="3.58 451.25 0 451.25 451.25 0 454.83 0 3.58 451.25" style="fill: #bebebf"/>
      </g>
    </g>
  </g>
</svg>
