<svg xmlns="http://www.w3.org/2000/svg" width="1535.63" height="130" viewBox="0 0 1535.63 130">
  <g id="Layer_2" data-name="Layer 2">
    <g id="Layer_2-2" data-name="Layer 2">
      <path d="M285.51,37.49,193,130h.69l92.5-92.51Zm18.61,0L211.62,130h.69l92.5-92.51Zm-93,0L118.58,130h.69l92.5-92.51Zm55.82,0L174.41,130h.68L267.6,37.49Zm-18.61,0L155.79,130h.69L249,37.49Zm-18.61,0L137.19,130h.68l92.51-92.51Zm-93,0L44.16,130h.69l92.5-92.51Zm55.81,0L100,130h.68l92.51-92.51Zm-18.59,0L81.38,130h.68l92.51-92.51Zm-18.61,0L62.77,130h.67L156,37.49Zm-37.22,0L25.55,130h.69l92.51-92.51Zm-18.6,0L7,130h.67l92.5-92.51Zm-32.57,0L0,104.39v.67L67.58,37.49Zm18.6,0L0,123v.69L86.18,37.49ZM25,37.49l-25,25v.69L25.71,37.49Zm23.27,0L0,85.78v.68l49-49Zm-41.87,0L0,43.91v.68l7.11-7.1Zm269.8,0L183.71,130h.68L276.9,37.49Zm18.6,0L202.31,130H203l92.52-92.51Zm-93,0L109.29,130H110l92.51-92.51Zm55.81,0L165.11,130h.67l92.51-92.51Zm-18.6,0L146.5,130h.69l92.5-92.51Zm-18.61,0L127.89,130h.68l92.52-92.51Zm-93,0L34.85,130h.69l92.51-92.51Zm55.81,0L90.67,130h.69l92.5-92.51Zm-18.6,0L72.07,130h.69l92.5-92.51Zm-18.59,0L53.47,130h.68l92.5-92.51Zm-37.23,0L16.24,130h.69l92.51-92.51Zm-51.17,0L0,95.08v.69L58.27,37.49Zm37.23,0L2.3,130H3L95.48,37.49Zm-18.62,0L0,113.69v.69L76.88,37.49Zm-60.48,0L0,53.2v.69l16.4-16.4Zm23.28,0-39,39v.67L39.66,37.49Zm-4.66,0L0,71.81v.69l35-35Zm246.53,0L188.36,130H189l92.51-92.51Zm18.61,0L207,130h.69l92.51-92.51Zm-93,0L113.94,130h.68l92.5-92.51Zm55.81,0L169.75,130h.67l92.52-92.51Zm-18.61,0L151.15,130h.69l92.5-92.51Zm-18.6,0L132.54,130h.69l92.51-92.51Zm-93,0L39.5,130h.69L132.7,37.49Zm55.82,0L95.32,130H96l92.51-92.51Zm-18.61,0L76.71,130h.69l92.51-92.51Zm-18.59,0L58.12,130h.68l92.5-92.51Zm-37.22,0L20.9,130h.68L114.1,37.49Zm-51.17,0L0,99.73v.69L62.93,37.49Zm18.6,0L0,118.33V119L81.53,37.49Zm-60.47,0L0,57.86v.68l21.06-21Zm23.27,0L0,81.13v.67L44.31,37.49Zm-41.88,0L0,39.25v.69l2.45-2.45Zm269.8,0L179.05,130h.69l92.51-92.51Zm37.22,0L216.26,130H217l92.51-92.51Zm-18.62,0L197.66,130h.69l92.5-92.51Zm-93,0L104.63,130h.68l92.51-92.51Zm55.82,0L160.46,130h.68l92.5-92.51Zm-18.61,0L141.84,130h.68L235,37.49Zm-18.61,0L123.23,130h.69l92.5-92.51Zm-93,0L30.2,130h.69l92.5-92.51Zm55.82,0L86,130h.69l92.5-92.51Zm-18.6,0L67.42,130h.69l92.5-92.51Zm-18.59,0L48.81,130h.68L142,37.49Zm-37.23,0L11.6,130h.68l92.51-92.51Zm-51.17,0L0,90.43v.69L53.62,37.49Zm37.22,0L0,127.64v.68L90.83,37.49Zm-18.61,0L0,109v.69L72.23,37.49Zm-60.46,0L0,48.57v.68L11.76,37.49Zm18.59,0L0,67.16v.69L30.36,37.49Zm572.16,0L509.33,130H510l92.51-92.51Zm37.2,0L546.53,130h.69l92.5-92.51Zm-18.58,0L527.94,130h.67l92.51-92.51Zm-93,0L434.9,130h.69l92.5-92.51Zm55.81,0L490.71,130h.68l92.52-92.51Zm-18.61,0L472.11,130h.69l92.5-92.51Zm-18.61,0L453.5,130h.68l92.51-92.51Zm-93,0L360.47,130h.69l92.5-92.51Zm55.81,0L416.29,130H417l92.52-92.51Zm-18.6,0L397.68,130h.69l92.5-92.51Zm-18.61,0L379.08,130h.67l92.51-92.51Zm-37.21,0L341.86,130h.69l92.51-92.51Zm-18.6,0L323.26,130h.67l92.51-92.51Zm-32.57,0L290.69,130h.68l92.51-92.51Zm18.61,0L309.3,130H310L402.5,37.49Zm-60.47,0L248.83,130h.69L342,37.49Zm23.26,0L272.09,130h.68l92.5-92.51Zm-41.87,0L230.22,130h.69l92.51-92.51Zm269.8,0L500,130h.68l92.51-92.51Zm37.22,0L537.23,130h.68l92.51-92.51Zm-18.62,0L518.62,130h.69l92.51-92.51Zm-93,0L425.6,130h.67l92.5-92.51Zm55.82,0L481.42,130h.67L574.6,37.49Zm-18.6,0L462.81,130h.68L556,37.49Zm-18.61,0L444.19,130h.69l92.51-92.51Zm-93.05,0L351.16,130h.69l92.5-92.51Zm55.83,0L407,130h.69l92.5-92.51Zm-18.61,0L388.38,130h.69l92.5-92.51Zm-18.59,0L369.77,130h.68L463,37.49Zm-37.23,0L332.55,130h.69l92.51-92.51Zm-51.16,0L281.4,130h.69l92.5-92.51Zm37.21,0L318.61,130h.67l92.51-92.51Zm-18.61,0L300,130h.69l92.5-92.51Zm-60.47,0L239.53,130h.69l92.5-92.51Zm23.27,0L262.79,130h.67L356,37.49Zm-4.66,0L258.13,130h.69l92.51-92.51Zm-37.22,0L220.92,130h.69l92.5-92.51Zm283.76,0L504.67,130h.69l92.5-92.51Zm37.21,0L541.89,130h.69l92.5-92.51Zm-18.6,0L523.28,130H524l92.52-92.51Zm-93,0L430.25,130h.68l92.51-92.51Zm55.8,0L486.07,130h.67l92.51-92.51Zm-18.61,0L467.46,130h.69l92.5-92.51Zm-18.6,0L448.85,130h.69l92.51-92.51Zm-93,0L355.82,130h.68L449,37.49Zm55.81,0L411.64,130h.69l92.5-92.51Zm-18.6,0L393,130h.69l92.51-92.51Zm-18.6,0L374.43,130h.68l92.5-92.51Zm-37.22,0L337.2,130h.69L430.4,37.49Zm-51.17,0L286,130h.69l92.51-92.51Zm18.6,0L304.65,130h.69l92.5-92.51Zm-60.47,0L244.18,130h.69l92.5-92.51Zm23.27,0L267.44,130h.68l92.5-92.51Zm-41.88,0L225.57,130h.68l92.51-92.51Zm269.81,0L495.37,130h.69l92.51-92.51Zm55.82,0L551.18,130h.69l92.51-92.51Zm-18.61,0L532.58,130h.68l92.5-92.51Zm41.86,0L574.45,130h.69l92.5-92.51Zm-18.59,0L555.85,130h.67L649,37.49Zm9.29,0L565.14,130h.68l92.5-92.51Zm4.65,0L569.8,130h.68L663,37.49Zm9.3,0L579.09,130h.69l92.51-92.51Zm-18.59,0L560.5,130h.68l92.5-92.51Zm-46.54,0L514,130h.69l92.5-92.51Zm-93,0L420.94,130h.68l92.51-92.51Zm55.82,0L476.76,130h.68L570,37.49Zm-18.61,0L458.15,130h.69l92.51-92.51Zm-18.61,0L439.55,130h.69l92.5-92.51Zm-93,0L346.52,130h.69l92.5-92.51Zm55.82,0L402.34,130H403l92.51-92.51Zm-18.61,0L383.72,130h.69l92.51-92.51Zm-18.59,0L365.13,130h.68l92.5-92.51Zm-37.23,0L327.91,130h.68L421.1,37.49Zm-51.16,0L276.74,130h.69l92.5-92.51Zm37.22,0L314,130h.68l92.51-92.51Zm-18.61,0L295.35,130H296l92.52-92.51Zm-60.47,0L234.88,130h.68l92.51-92.51Zm18.59,0L253.48,130h.68l92.51-92.51Zm552.68,0L806.15,130h1l92.5-92.51Zm57,0L863.2,130h1l92.51-92.51Zm-20.75,0L842.45,130h1L936,37.49Zm-20.73,0L821.71,130h1l92.51-92.51Zm-36.3,0L785.41,130h1L879,37.49Zm10.37,0L795.78,130h1l92.51-92.51Zm57,0L852.81,130h1l92.52-92.51Zm-20.74,0L832.08,130h1l92.5-92.51Zm-20.72,0L811.34,130h1l92.51-92.51Zm-36.31,0L775.05,130h1l92.51-92.51Zm25.93,0L801,130h1l92.5-92.51Zm57,0L858,130h1l92.51-92.51Zm-20.74,0L837.26,130h1l92.51-92.51Zm-20.74,0L816.53,130h1l92.51-92.51Zm-36.29,0L780.23,130h1l92.51-92.51Zm88.13,0L868.37,130h1l92.51-92.51Zm-77.76,0L790.6,130h1l92.5-92.51Zm57,0L847.64,130h1l92.52-92.51Zm-20.75,0L826.9,130h1l92.5-92.51ZM795,37.49,702.46,130h1L796,37.49Zm62.22,0L764.68,130h1l92.5-92.51Zm-20.75,0L743.93,130h1l92.51-92.51Zm-20.73,0L723.2,130h1l92.5-92.51Zm-36.29,0L686.89,130h1l92.51-92.51Zm5.19,0L692.08,130h1l92.52-92.51Zm62.21,0L754.3,130h1l92.5-92.51Zm-20.73,0L733.56,130h1l92.52-92.51Zm-20.74,0L712.83,130h1l92.51-92.51Zm-36.29,0L676.54,130h1l92.5-92.51Zm20.73,0L697.27,130h1L790.8,37.49Zm62.2,0L759.48,130h1L853,37.49Zm-20.72,0L738.75,130h1l92.51-92.51Zm-20.75,0L718,130h1l92.5-92.51Zm-36.3,0L681.71,130h1l92.5-92.51Zm88.16,0L769.85,130h1l92.5-92.51Zm-20.74,0L749.13,130h1l92.5-92.51Zm-20.75,0L728.37,130h1l92.51-92.51Zm-20.74,0L707.64,130h1l92.5-92.51Zm-67.41,0L640.23,130h1l92.5-92.51Zm20.75,0L661,130h1l92.5-92.51Zm-41.47,0L619.5,130h1L713,37.49Zm10.36,0L629.86,130h1L723.4,37.49Zm41.48,0L671.34,130h1l92.51-92.51Zm-20.73,0L650.6,130h1l92.52-92.51Zm-41.47,0L609.13,130h1l92.51-92.51Zm25.91,0L635.05,130h1l92.51-92.51Zm20.74,0L655.79,130h1l92.51-92.51Zm-41.48,0L614.31,130h1l92.51-92.51Zm10.38,0L624.69,130h1l92.51-92.51Zm-31.12,0L593.57,130h1l92.51-92.51Zm10.36,0L603.93,130h1l92.51-92.51Zm-20.72,0L583.21,130h1l92.5-92.51Zm5.17,0L588.39,130h1l92.5-92.51Zm10.38,0L598.76,130h1l92.51-92.51Zm67.39,0L666.16,130h1L759.7,37.49Zm-20.73,0L645.42,130h1L739,37.49Zm347.38,0L992.81,130h1l92.5-92.51Zm57,0L1049.85,130h1l92.52-92.51Zm-20.75,0L1029.11,130h1l92.51-92.51Zm-20.73,0L1008.36,130h1l92.52-92.51Zm-36.3,0L972.06,130h1l92.51-92.51Zm10.37,0L982.44,130h1L1076,37.49Zm57,0L1039.47,130h1L1133,37.49Zm-20.73,0L1018.74,130h1l92.51-92.51Zm-20.73,0L998,130h1l92.5-92.51Zm-31.11,0L966.89,130h1l92.5-92.51Zm20.74,0L987.63,130h1l92.5-92.51Zm57,0L1044.66,130h1l92.5-92.51Zm-20.73,0L1023.92,130h1l92.51-92.51Zm-20.75,0L1003.18,130h1l92.5-92.51Zm51.85,0L1055,130h1l92.52-92.51Zm-77.76,0L977.26,130h1l92.51-92.51Zm57,0L1034.3,130h1l92.51-92.51Zm-20.74,0L1013.55,130h1l92.51-92.51ZM992,37.49,899.49,130h1L993,37.49Zm57,0L956.52,130h1L1050,37.49Zm-20.74,0L935.78,130h1l92.52-92.51Zm-20.74,0L915,130h1l92.5-92.51Zm-36.29,0L878.74,130h1l92.51-92.51Zm10.37,0L889.1,130h1l92.51-92.51Zm57,0L946.14,130h1l92.5-92.51Zm-20.73,0L925.4,130h1l92.51-92.51Zm-20.74,0L904.67,130h1L998.2,37.49Zm-10.37,0L894.3,130h1l92.52-92.51Zm57,0L951.33,130h1l92.51-92.51Zm-20.72,0L930.59,130h1l92.52-92.51Zm-20.76,0L909.85,130h1l92.5-92.51Zm-36.29,0L873.56,130h1l92.5-92.51Zm88.14,0L961.69,130h1l92.5-92.51Zm-77.76,0L883.93,130h1l92.51-92.51Zm57,0L941,130h1l92.5-92.51Zm-20.75,0L920.22,130h1l92.51-92.51Zm347.78,0L1268,130h4.1l92.5-92.51Zm37.55,0L1305.55,130h4.1l92.51-92.51Zm-56.34,0L1249.2,130h4.11l92.5-92.51Zm75.13,0L1324.33,130h4.11l92.5-92.51Zm-37.57,0L1286.76,130h4.11l92.52-92.51Zm-28.17,0L1258.6,130h4.1l92.5-92.51Zm75.13,0L1333.72,130h4.11l92.5-92.51Zm-37.56,0L1296.16,130h4.1l92.51-92.51Zm18.77,0L1314.93,130h4.12l92.51-92.51Zm-37.56,0L1277.38,130h4.09L1374,37.49ZM1527.42,0l-130,130h8.21l130-130Zm-87.24,32.92L1343.1,130h8.22l97.07-97.08ZM1481,19.23,1370.27,130h8.21L1489.25,19.23Zm27.29-13.7L1383.84,130h8.2L1516.52,5.53Zm-50,22.82L1356.69,130h8.2L1466.53,28.35Zm-207.88,9.14L1157.93,130H1160l92.5-92.51Zm77.94,0L1235.88,130h2l92.5-92.51Zm-26,0L1209.89,130h2l92.51-92.51Zm-26,0L1183.91,130H1186l92.5-92.51Zm-52,0L1132,130h2l92.51-92.51Zm13,0L1144.93,130H1147l92.51-92.51Zm77.94,0L1222.88,130H1225l92.5-92.51Zm-26,0L1196.91,130h2l92.51-92.51Zm-26,0L1170.92,130h2l92.51-92.51Zm-52,0L1119,130h2l92.5-92.51Zm32.48,0L1151.44,130h2L1246,37.49Zm77.94,0L1229.38,130h2l92.51-92.51Zm-26,0L1203.4,130h2L1298,37.49Zm-26,0L1177.42,130h2L1272,37.49Zm-52,0L1125.46,130h2L1220,37.49Zm116.92,0L1242.37,130h2.06l92.5-92.51Zm-103.92,0L1138.45,130h2L1233,37.49Zm77.94,0L1216.4,130h2L1311,37.49Zm-26,0L1190.41,130h2L1285,37.49Zm-26,0L1164.42,130h2L1259,37.49Zm-64.94,0L1099.47,130h2.06L1194,37.49Zm-26,0L1073.5,130h2l92.51-92.51Zm13,0L1086.47,130h2.06L1181,37.49Zm26,0L1112.47,130h2L1207,37.49Zm-52,0L1060.51,130h2l92.5-92.51Zm32.48,0L1093,130h2l92.51-92.51Zm-26,0L1067,130h2l92.5-92.51Zm13,0L1080,130h2l92.51-92.51Zm26,0L1106,130h2l92.51-92.51Z" style="fill: #3d4344"/>
    </g>
  </g>
</svg>
