<svg xmlns="http://www.w3.org/2000/svg" width="773.5" height="130" viewBox="0 0 773.5 130">
  <g id="Layer_2" data-name="Layer 2">
    <g id="Layer_2-2" data-name="Layer 2">
      <path d="M136.52,37.5,44,130h1l92.51-92.5Zm57,0L101.07,130h1l92.52-92.5Zm-20.74,0L80.32,130h1l92.51-92.5Zm-20.75,0L59.58,130h1l92.5-92.5Zm-36.29,0L23.27,130h1l92.5-92.5Zm10.37,0L33.65,130h1L127.2,37.5Zm57,0L90.68,130h1l92.52-92.5Zm-20.75,0L69.94,130h1l92.5-92.5Zm-20.72,0L49.21,130h1l92.5-92.5Zm-36.31,0L12.91,130h1l92.5-92.5Zm26,0L38.83,130h1l92.51-92.5Zm57,0L95.87,130h1l92.5-92.5Zm-20.73,0L75.12,130h1l92.53-92.5Zm-20.74,0L54.4,130h1l92.5-92.5Zm-36.29,0L18.09,130h1l92.5-92.5Zm88.12,0L106.23,130h1l92.5-92.5ZM121,37.5,28.47,130h1L122,37.5Zm57,0L85.5,130h1L179,37.5Zm-20.75,0L64.76,130h1l92.5-92.5Zm-124.43,0L0,70.33v1L33.86,37.5Zm62.22,0L2.54,130h1l92.5-92.5Zm-20.75,0L0,111.8v1L75.34,37.5Zm-20.72,0L0,91.07v1L54.6,37.5Zm-36.31,0L0,54.77v1L18.31,37.5Zm5.2,0L0,60v1L23.49,37.5Zm62.22,0L0,122.16v1L85.71,37.5Zm-20.75,0L0,101.44v1l65-65Zm-20.72,0L0,80.71v1L44.24,37.5Zm-36.29,0L0,44.42v1L7.93,37.5Zm20.72,0L0,65.15v1L28.67,37.5Zm62.2,0L0,127.34v1L90.89,37.5Zm-20.73,0L0,106.62v1L70.14,37.5Zm-20.74,0L0,85.87v1L49.42,37.5Zm-36.29,0L0,49.59v1L13.11,37.5Zm88.14,0L7.73,130h1l92.5-92.5Zm-20.73,0L0,117v1L80.53,37.5Zm-20.76,0L0,96.24v1L59.78,37.5ZM38,37.5l-38,38v1l39-39Zm-36.29,0L0,39.22v1L2.75,37.5Zm321.45,0L230.68,130h1L324.2,37.5Zm57.05,0L287.73,130h1l92.52-92.5Zm-20.74,0L267,130h1l92.51-92.5Zm-20.75,0L246.24,130h1l92.5-92.5Zm-36.29,0L209.93,130h1l92.51-92.5Zm10.37,0L220.31,130h1l92.51-92.5Zm57,0L277.35,130h1l92.52-92.5Zm-20.74,0L256.6,130h1l92.51-92.5Zm-20.73,0L235.88,130h1l92.48-92.5Zm-31.11,0L204.77,130h1l92.49-92.5Zm20.75,0L225.49,130h1L319,37.5Zm57,0L282.53,130h1l92.5-92.5Zm-20.72,0L261.78,130h1l92.53-92.5Zm-20.75,0L241.06,130h1l92.5-92.5Zm51.83,0L292.89,130h1l92.5-92.5Zm-77.75,0L215.13,130h1l92.51-92.5Zm57,0L272.16,130h1l92.5-92.5Zm-20.75,0L251.42,130h1L345,37.5Zm-114.06,0L137.35,130h1l92.5-92.5Zm57,0L194.39,130h1l92.5-92.5Zm-20.74,0L173.64,130h1l92.53-92.5Zm-20.75,0L152.92,130h1l92.5-92.5Zm-36.29,0L116.61,130h1l92.52-92.5Zm10.37,0L127,130h1l92.53-92.5Zm57,0L184,130h1l92.5-92.5Zm-20.75,0L163.28,130h1l92.51-92.5ZM235,37.5,142.54,130h1l92.5-92.5Zm-10.36,0L132.17,130h1L225.7,37.5Zm57,0L189.21,130h1l92.5-92.5ZM261,37.5,168.46,130h1L262,37.5Zm-20.76,0L147.72,130h1l92.5-92.5Zm-36.29,0L111.43,130h1L205,37.5Zm88.14,0L199.57,130h1l92.48-92.5Zm-77.76,0L121.81,130h1l92.51-92.5Zm57,0L178.84,130h1l92.5-92.5Zm-20.77,0L158.1,130h1l92.5-92.5Zm347.79,0L505.85,130H510l92.51-92.5Zm37.55,0L543.42,130h4.1L640,37.5Zm-56.34,0L487.07,130h4.11l92.5-92.5Zm75.14,0L562.19,130h4.11l92.5-92.5Zm-37.57,0L524.62,130h4.13l92.5-92.5ZM589,37.5,496.47,130h4.1l92.51-92.5Zm75.13,0L571.59,130h4.11l92.5-92.5Zm-37.56,0L534,130h4.11l92.5-92.5Zm18.78,0L552.8,130h4.12l92.5-92.5Zm-37.57,0L515.25,130h4.1l92.5-92.5ZM765.29,0l-130,130h8.21L773.5,0ZM678.06,32.93,581,130h8.23l97.07-97.07ZM718.9,19.24,608.14,130h8.21L727.13,19.24ZM746.18,5.53,621.72,130h8.19L754.39,5.53Zm-50,22.83L594.56,130h8.19L704.4,28.36ZM488.32,37.5,395.79,130h2.07l92.5-92.5Zm77.92,0L473.74,130h2.06l92.5-92.5Zm-26,0L447.76,130h2.06l92.5-92.5Zm-26,0L421.78,130h2.08l92.48-92.5Zm-52,0L369.81,130h2.06l92.51-92.5Zm13,0L382.79,130h2.07l92.52-92.5Zm78,0L460.76,130h2.06l92.5-92.5Zm-26,0L434.78,130h2l92.52-92.5Zm-26,0L408.79,130h2l92.52-92.5Zm-52,0L356.83,130h2.06L451.4,37.5Zm32.48,0L389.31,130h2.05l92.5-92.5Zm77.94,0L467.26,130h2l92.5-92.5Zm-26,0L441.28,130h2l92.5-92.5Zm-26,0L415.29,130h2l92.5-92.5Zm-52,0L363.33,130h2l92.51-92.5Zm116.92,0L480.24,130h2.06l92.5-92.5Zm-103.92,0L376.31,130h2.06l92.51-92.5Zm77.92,0L454.28,130h2l92.5-92.5Zm-26,0L428.28,130h2l92.52-92.5Zm-26,0L402.29,130h2l92.52-92.5Zm-64.95,0L337.33,130h2.06L431.9,37.5Zm-26,0L311.37,130h2.06l92.49-92.5Zm13,0L324.35,130h2l92.53-92.5Zm26,0L350.33,130h2L444.9,37.5Zm-52,0L298.39,130h2l92.5-92.5Zm32.48,0L330.85,130h2.06L425.4,37.5Zm-26,0L304.87,130h2l92.51-92.5Zm13,0L317.85,130h2.06l92.51-92.5Zm26,0L343.85,130h2L438.4,37.5Z" style="fill: #3d4344"/>
    </g>
  </g>
</svg>
