<svg xmlns="http://www.w3.org/2000/svg" width="1163.85" height="130" viewBox="0 0 1163.85 130">
  <g id="Layer_2" data-name="Layer 2">
    <g id="Layer_2-2" data-name="Layer 2">
      <path d="M826.68,37.49,734.19,130h2.06l92.51-92.51Zm-26,0L708.21,130h2l92.51-92.51Zm-13,0L695.23,130h2l92.51-92.51Zm26,0L721.19,130h2.06l92.51-92.51Zm-32.48,0L688.73,130h2.06l92.49-92.51Zm52,0L740.69,130h2l92.51-92.51Zm-26,0L714.69,130h2.06l92.51-92.51Zm-13,0L701.71,130h2.06l92.51-92.51Zm26,0L727.69,130h2.06l92.49-92.51Zm64.94,0L792.63,130h2.06L887.2,37.49Zm26,0L818.63,130h2l92.51-92.51Zm26,0L844.61,130h2.06l92.49-92.51Zm-78,0L766.67,130h2l92.51-92.51Zm103.93,0L870.59,130h2.06l92.49-92.51Zm-116.93,0L753.69,130h2l92.51-92.51Zm52,0L805.63,130h2.06l92.49-92.51Zm26,0L831.61,130h2.06l92.49-92.51Zm26,0L857.61,130h2l92.51-92.51Zm-78,0L779.65,130h2.06l92.51-92.51Zm-32.48,0L747.19,130h2l92.51-92.51Zm52,0L799.15,130h2L893.7,37.49Zm26,0L825.13,130h2l92.51-92.51Zm26,0L851.09,130h2.08l92.49-92.51Zm-78,0L773.15,130h2.06l92.51-92.51Zm-13,0L760.17,130h2.06l92.49-92.51Zm52,0L812.13,130h2.06L906.7,37.49Zm26,0L838.11,130h2.06l92.49-92.51Zm26,0L864.09,130h2.06l92.49-92.51Zm-78,0L786.15,130h2.06L880.7,37.49Zm207.89-9.14L984.92,130h8.18L1094.76,28.35Zm50-22.82L1012.06,130h8.21L1144.74,5.53Zm-27.28,13.7L998.48,130h8.22L1117.48,19.23Zm-40.84,13.7L971.31,130h8.23l97.07-97.07ZM1155.64,0l-130,130h8.21l130-130ZM998.09,37.49,905.6,130h4.09l92.51-92.51Zm37.56,0L943.14,130h4.13l92.5-92.51Zm-18.76,0L924.38,130h4.11L1021,37.49Zm37.57,0L961.94,130h4.12l92.49-92.51Zm-75.15,0L886.81,130h4.12l92.49-92.51Zm28.17,0L915,130h4.13l92.51-92.51Zm37.58,0L952.55,130h4.11l92.5-92.51Zm-75.14,0L877.42,130h4.12L974,37.49Zm56.34,0L933.77,130h4.09l92.52-92.51Zm-37.54,0L896.2,130h4.12l92.49-92.51Zm-347.78,0L548.45,130h1L642,37.49Zm20.74,0L569.19,130h1l92.51-92.51Zm-57,0L512.14,130h1l92.51-92.51Zm77.77,0L589.91,130H591l92.49-92.51Zm-88.14,0L501.78,130h1L595.3,37.49Zm36.3,0L538.06,130h1l92.52-92.51Zm20.74,0L558.81,130h1l92.52-92.51Zm20.72,0L579.55,130h1l92.51-92.51Zm-57,0L522.52,130h1L616,37.49Zm10.38,0L532.88,130h1l92.52-92.51Zm20.74,0L553.63,130h1l92.52-92.51Zm20.72,0L574.35,130h1l92.49-92.51Zm-57,0L517.32,130h1l92.51-92.51Zm-10.37,0L507,130h1L600.5,37.49Zm36.29,0L543.26,130h1l92.52-92.51Zm20.74,0L564,130h1l92.51-92.51Zm20.74,0L584.75,130h1l92.51-92.51Zm-57,0L527.7,130h1l92.52-92.51Zm114,0L641.77,130h1l92.5-92.51Zm20.76,0L662.52,130h1L756,37.49Zm-57,0L605.47,130h1L699,37.49Zm77.77,0L683.24,130h1l92.51-92.51Zm-51.84,0L631.39,130h1l92.51-92.51Zm20.74,0L652.13,130h1l92.52-92.51Zm20.74,0L672.88,130h1l92.51-92.51Zm-57,0L615.85,130h1l92.51-92.51Zm-20.74,0L595.11,130h1l92.49-92.51Zm31.11,0L626.21,130h1l92.49-92.51Zm20.72,0L647,130h1l92.5-92.51Zm20.74,0L667.7,130h1l92.52-92.51Zm-57,0L610.65,130h1l92.51-92.51Zm-10.36,0L600.29,130h1l92.51-92.51Zm36.29,0L636.57,130h1l92.52-92.51Zm20.74,0L657.33,130h1l92.52-92.51Zm20.74,0L678.08,130h1L771.6,37.49Zm-57,0L621,130h1l92.49-92.51Zm-347.4,0L273.64,130h1l92.49-92.51Zm20.75,0L294.38,130h1l92.51-92.51Zm-67.39,0L227,130h1L320.5,37.49Zm-10.38,0L216.62,130h1l92.5-92.51Zm-5.18,0L211.43,130h1L305,37.49Zm20.74,0L232.16,130h1L325.7,37.49Zm-10.36,0L221.8,130h1l92.52-92.51Zm31.1,0L252.9,130h1l92.51-92.51Zm-10.38,0L242.54,130h1l92.49-92.51Zm41.48,0L284,130h1l92.49-92.51Zm-20.74,0L263.26,130h1L356.8,37.49Zm-25.9,0L237.36,130h1l92.51-92.51Zm41.46,0L278.82,130h1l92.51-92.51Zm20.75,0L299.56,130h1L393.1,37.49Zm-41.49,0L258.08,130h1l92.51-92.51Zm-10.36,0L247.72,130h1l92.51-92.51Zm41.47,0L289.2,130h1l92.51-92.51Zm-20.75,0L268.44,130h1.05L362,37.49Zm67.41,0L335.87,130h1l92.5-92.51Zm20.74,0L356.59,130h1l92.51-92.51Zm20.74,0L377.35,130h1l92.51-92.51Zm20.74,0L398.07,130h1.05l92.49-92.51Zm-88.14,0L309.92,130h1l92.52-92.51Zm36.3,0L346.23,130h1l92.51-92.51Zm20.74,0L367,130h1l92.51-92.51Zm20.72,0L387.69,130h1l92.51-92.51Zm-62.2,0L325.49,130h1L419,37.49Zm-20.72,0L304.76,130h1l92.52-92.51Zm36.28,0L341.05,130h1l92.52-92.51Zm20.74,0L361.79,130h1l92.51-92.51Zm20.72,0L382.51,130h1.05l92.49-92.51Zm-62.2,0L320.3,130h1l92.52-92.51Zm-5.2,0L315.1,130h1l92.52-92.51Zm36.3,0L351.43,130h1L445,37.49Zm20.72,0L372.15,130h1l92.51-92.51Zm20.76,0L392.89,130h1l92.49-92.51Zm-62.22,0L330.67,130h1l92.5-92.51Zm124.43,0L455.12,130h1l92.5-92.51Zm20.76,0L475.86,130h1l92.51-92.51Zm-57,0L418.81,130h1l92.52-92.51Zm77.76,0L496.58,130h1l92.51-92.51Zm-88.12,0L408.45,130h1L502,37.49Zm36.28,0L444.74,130h1l92.52-92.51Zm20.74,0L465.48,130h1L559,37.49Zm20.74,0L486.22,130h1l92.51-92.51Zm-57,0L429.19,130h1l92.52-92.51Zm-25.94,0L403.27,130h1l92.51-92.51Zm36.3,0L439.56,130h1l92.5-92.51Zm20.72,0L460.3,130h1l92.49-92.51Zm20.74,0L481,130h1l92.51-92.51Zm-57,0L424,130h1l92.52-92.51Zm-10.36,0L413.63,130h1l92.51-92.51Zm36.28,0L449.92,130h1l92.51-92.51Zm20.74,0L470.68,130h1L564.2,37.49Zm20.74,0L491.42,130h1l92.51-92.51Zm-57,0L434.37,130h1l92.5-92.51Zm-510.78,0L.14,53.44l0,.69L16.76,37.49Zm18.6,0L.1,72.08v.68L35.37,37.49Zm13.93,0L.08,86.05v.68L49.32,37.49Zm37.24,0L0,123.34V124L86.54,37.49Zm18.59,0L11.93,130h.7l92.5-92.51Zm18.6,0L30.56,130h.68l92.51-92.51Zm-55.82,0L0,104.7v.68L67.93,37.49Zm93,0L67.77,130h.68L161,37.49Zm18.61,0L86.36,130h.7l92.51-92.51Zm18.6,0L105,130h.68l92.49-92.51Zm-55.82,0L49.15,130h.68l92.51-92.51Zm93,0L142.19,130h.69l92.5-92.51Zm46.53,0L188.71,130h.68l92.52-92.51Zm18.58,0L207.3,130h.7l92.51-92.51Zm-9.29,0L198,130h.7L291.2,37.49Zm-4.66,0L193.37,130h.68l92.49-92.51Zm-9.29,0L184.06,130h.68l92.51-92.51Zm18.61,0L202.66,130h.7l92.5-92.51Zm-41.87,0L160.79,130h.68L254,37.49Zm18.6,0L179.4,130h.7l92.51-92.51Zm-55.82,0L123.58,130h.7l92.51-92.51Zm-190.71,0L.12,62.75v.7l25.94-26Zm-18.61,0L.14,44.12v.68l7.31-7.31Zm51.17,0L.06,95.37V96L58.62,37.49Zm37.21,0L2.64,130h.68L95.83,37.49Zm18.61,0L21.25,130h.69l92.52-92.51Zm18.61,0L39.85,130h.7l92.5-92.51Zm-55.82,0L0,114v.7L77.24,37.49Zm93,0L77.07,130h.68l92.51-92.51Zm18.59,0L95.68,130h.69l92.5-92.51Zm18.63,0L114.28,130H115l92.52-92.51Zm-55.83,0L58.48,130h.68l92.49-92.51Zm93,0L151.5,130h.68l92.51-92.51Zm18.59,0L170.11,130h.68L263.3,37.49Zm-37.21,0L132.89,130h.7l92.49-92.51Zm-204.67,0L.12,58.09v.68L21.4,37.49Zm18.61,0L.08,76.74v.68L40,37.49Zm-37.22,0-1.95,2v.69l2.65-2.65Zm51.17,0L.06,90.71v.7L54,37.49Zm55.82,0L16.59,130h.7l92.49-92.51Zm18.61,0L35.22,130h.68l92.49-92.51Zm-55.82,0L0,109.34,0,110,72.57,37.49Zm93,0L72.41,130h.68L165.6,37.49Zm18.6,0L91,130h.7l92.49-92.51Zm18.61,0L109.63,130h.68l92.51-92.51Zm-55.82,0L53.82,130h.66L147,37.49Zm93,0L146.84,130h.68L240,37.49Zm18.6,0L165.45,130h.68l92.51-92.51Zm-37.21,0L128.23,130h.68l92.52-92.51ZM30,37.49.1,67.41v.69L30.72,37.49Zm-18.61,0L.14,48.76v.7l12-12Zm32.58,0L.08,81.4v.67L44.65,37.49Zm18.6,0L0,100v.68L63.27,37.49Zm37.22,0L7.3,130H8l92.51-92.51Zm18.61,0L25.9,130h.68L119.1,37.49Zm18.59,0L44.51,130h.68L137.7,37.49Zm-55.81,0L0,118.67v.68L81.88,37.49Zm93,0L81.73,130h.67l92.52-92.51Zm18.61,0L100.33,130H101l92.52-92.51Zm18.6,0L118.94,130h.68l92.51-92.51Zm-55.8,0L63.12,130h.68l92.51-92.51Zm93,0L156.16,130h.67l92.5-92.51Zm18.59,0L174.74,130h.7l92.5-92.51Zm-37.22,0L137.55,130h.68l92.51-92.51ZM0,128.68,91.17,37.49H90.5L0,128Z" style="fill: #3d4344"/>
    </g>
  </g>
</svg>
